<svg width="800" height="800" viewBox="0 0 800 800" fill="none" xmlns="http://www.w3.org/2000/svg">
<g clip-path="url(#clip0)">
<rect width="800" height="800" fill="white"/>
<path d="M799.763 796.04H0V800H799.763V796.04Z" fill="#ECECEC"/>
<path d="M800 685.382H1.14795V689.343H800V685.382Z" fill="#ECECEC"/>
<path d="M800 550.425H1.14795V554.386H800V550.425Z" fill="#ECECEC"/>
<path d="M800 415.503H1.14795V419.465H800V415.503Z" fill="#ECECEC"/>
<path d="M800 280.563H1.14795V284.524H800V280.563Z" fill="#ECECEC"/>
<path d="M800 145.623H1.14795V149.585H800V145.623Z" fill="#ECECEC"/>
<path d="M111 348H107V573H111V348Z" fill="#DE6D00"/>
<path d="M304 132H300V740H304V132Z" fill="#DE6D00"/>
<path d="M499 217H495V615H499V217Z" fill="#DE6D00"/>
<path d="M693 303H689V680H693V303Z" fill="#DE6D00"/>
<path d="M164.585 384H51V529.405H164.585V384Z" fill="#FFC700"/>
<path d="M358.888 252H245.303V643.257H358.888V252Z" fill="#FCA600"/>
<path d="M553.214 293H439.629V576.847H553.214V293Z" fill="#EE8900"/>
<path d="M748 343H634.415V612H748V343Z" fill="#DE6D00"/>
<path d="M164.585 346H51V352H164.585V346Z" fill="#D95100"/>
<path d="M164.585 573H51V579H164.585V573Z" fill="#D95100"/>
<path d="M358.888 130H245.303V136H358.888V130Z" fill="#D95100"/>
<path d="M358.888 740H245.303V746H358.888V740Z" fill="#D95100"/>
<path d="M553.214 215H439.629V221H553.214V215Z" fill="#D95100"/>
<path d="M553.214 615H439.629V621H553.214V615Z" fill="#D95100"/>
<path d="M748 301H634.415V307H748V301Z" fill="#D95100"/>
<path d="M748 680H634.415V686H748V680Z" fill="#D95100"/>
</g>
<defs>
<clipPath id="clip0">
<rect width="800" height="800" fill="white"/>
</clipPath>
</defs>
</svg>
