<svg width="800" height="800" viewBox="0 0 800 800" fill="none" xmlns="http://www.w3.org/2000/svg">
<rect width="800" height="800" fill="white"/>
<path d="M799.763 796.04H0V800H799.763V796.04Z" fill="#ECECEC"/>
<path d="M800 685.382H1.14807V689.343H800V685.382Z" fill="#ECECEC"/>
<path d="M800 550.425H1.14807V554.386H800V550.425Z" fill="#ECECEC"/>
<path d="M800 415.503H1.14807V419.465H800V415.503Z" fill="#ECECEC"/>
<path d="M800 280.563H1.14807V284.524H800V280.563Z" fill="#ECECEC"/>
<path d="M800 145.623H1.14807V149.585H800V145.623Z" fill="#ECECEC"/>
<path d="M4.50419 0H0.59082V799.109H4.50419V0Z" fill="#ECECEC"/>
<path d="M137.27 10.1509H133.372V799.11H137.27V10.1509Z" fill="#ECECEC"/>
<path d="M270.05 10.1509H266.152V799.11H270.05V10.1509Z" fill="#ECECEC"/>
<path d="M402.848 10.1509H398.917V799.11H402.848V10.1509Z" fill="#ECECEC"/>
<path d="M535.586 10.1509H531.706V799.11H535.586V10.1509Z" fill="#ECECEC"/>
<path d="M668.383 10.1509H664.468V799.11H668.383V10.1509Z" fill="#ECECEC"/>
<path d="M37.553 326.972H5V796.396H37.553V326.972Z" fill="#7B52AB"/>
<path d="M86.0581 146H53.6071V796.396H86.0581V146Z" fill="#7B52AB"/>
<path d="M134.647 388.731H102.077V796.395H134.647V388.731Z" fill="#7B52AB"/>
<path d="M183.102 254.35H150.567V796.395H183.102V254.35Z" fill="#7B52AB"/>
<path d="M231.494 662.955H199.009V796.395H231.494V662.955Z" fill="#7B52AB"/>
<path d="M280.05 492.863H247.549V796.396H280.05V492.863Z" fill="#7B52AB"/>
<path d="M328.573 549.208H296.02V796.396H328.573V549.208Z" fill="#7B52AB"/>
<path d="M377.061 348.645H344.542V796.395H377.061V348.645Z" fill="#7B52AB"/>
<path d="M425.511 636.671H393.009V796.396H425.511V636.671Z" fill="#7B52AB"/>
<path d="M474.015 665.295H441.547V796.396H474.015V665.295Z" fill="#7B52AB"/>
<path d="M522.555 423.777H490.001V796.396H522.555V423.777Z" fill="#7B52AB"/>
<path d="M571.009 537.388H538.574V796.396H571.009V537.388Z" fill="#7B52AB"/>
<path d="M619.579 198.535H587.009V796.395H619.579V198.535Z" fill="#7B52AB"/>
<path d="M668.1 386.357H635.548V796.396H668.1V386.357Z" fill="#7B52AB"/>
<path d="M716.556 567.619H684.088V796.395H716.556V567.619Z" fill="#7B52AB"/>
<path d="M765.094 291.276H732.626V796.396H765.094V291.276Z" fill="#7B52AB"/>
</svg>
