<svg width="800" height="800" viewBox="0 0 800 800" fill="none" xmlns="http://www.w3.org/2000/svg">
<rect width="800" height="800" fill="white"/>
<mask id="mask0" mask-type="alpha" maskUnits="userSpaceOnUse" x="26" y="26" width="748" height="748">
<path fill-rule="evenodd" clip-rule="evenodd" d="M400 774C606.554 774 774 606.554 774 400C774 193.446 606.554 26 400 26C193.445 26 26 193.446 26 400C26 606.554 193.445 774 400 774ZM400 630C527.026 630 630 527.026 630 400C630 272.974 527.026 170 400 170C272.974 170 170 272.974 170 400C170 527.026 272.974 630 400 630Z" fill="#C4C4C4"/>
</mask>
<g mask="url(#mask0)">
<path d="M399.56 399.523L163.856 690.58C3.13373 560.438 -21.7174 324.626 108.452 163.902C181.623 73.5086 283.288 25 399.56 25V399.523Z" fill="#DE6D00"/>
<path d="M399.56 399.523L366.925 772.672C289.618 765.912 224.155 739.467 163.857 690.581L399.56 399.523Z" fill="#EE8900"/>
<path d="M399.56 399.523L733.296 229.501C827.178 413.829 753.899 639.367 569.543 733.302C504.379 766.507 439.862 779.026 366.923 772.672L399.56 399.523Z" fill="#FCA600"/>
<path d="M399.56 399.523V25C546.019 25 666.779 99.0896 733.296 229.501L399.56 399.523Z" fill="#D95100"/>
</g>
</svg>
