<svg width="800" height="800" viewBox="0 0 800 800" fill="none" xmlns="http://www.w3.org/2000/svg">
<rect width="800" height="800" fill="white"/>
<path d="M799.763 796.04H0V800H799.763V796.04Z" fill="#ECECEC"/>
<path d="M800 685.382H1.14795V689.343H800V685.382Z" fill="#ECECEC"/>
<path d="M800 550.425H1.14795V554.386H800V550.425Z" fill="#ECECEC"/>
<path d="M800 415.503H1.14795V419.465H800V415.503Z" fill="#ECECEC"/>
<path d="M800 280.563H1.14795V284.524H800V280.563Z" fill="#ECECEC"/>
<path d="M800 145.623H1.14795V149.585H800V145.623Z" fill="#ECECEC"/>
<path d="M4.50419 0H0.59082V799.109H4.50419V0Z" fill="#ECECEC"/>
<path d="M137.27 10.1509H133.372V799.11H137.27V10.1509Z" fill="#ECECEC"/>
<path d="M270.05 10.1509H266.152V799.11H270.05V10.1509Z" fill="#ECECEC"/>
<path d="M402.848 10.1509H398.917V799.11H402.848V10.1509Z" fill="#ECECEC"/>
<path d="M535.586 10.1509H531.706V799.11H535.586V10.1509Z" fill="#ECECEC"/>
<path d="M668.383 10.1509H664.468V799.11H668.383V10.1509Z" fill="#ECECEC"/>
<path d="M21.024 745.988C32.62 745.988 42.015 755.383 42.015 766.962C42.015 778.592 32.621 787.986 21.024 787.986C9.427 787.986 0 778.592 0 766.962C0 755.383 9.427 745.988 21.024 745.988Z" fill="#3FC510"/>
<path d="M73.3039 692.685C84.8999 692.685 94.3119 702.113 94.3119 713.709C94.3119 725.29 84.8999 734.716 73.3039 734.716C61.6899 734.716 52.2959 725.29 52.2959 713.709C52.2959 702.112 61.6899 692.685 73.3039 692.685Z" fill="#3FC510"/>
<path d="M73.3039 586.128C84.8999 586.128 94.3119 595.521 94.3119 607.152C94.3119 618.731 84.8999 628.125 73.3039 628.125C61.6899 628.125 52.2959 618.732 52.2959 607.152C52.2959 595.521 61.6899 586.128 73.3039 586.128Z" fill="#3FC510"/>
<path d="M125.584 692.685C137.197 692.685 146.608 702.113 146.608 713.709C146.608 725.29 137.197 734.716 125.584 734.716C113.987 734.716 104.593 725.29 104.593 713.709C104.593 702.112 113.987 692.685 125.584 692.685Z" fill="#3FC510"/>
<path d="M125.584 426.265C137.197 426.265 146.608 435.676 146.608 447.289C146.608 458.869 137.197 468.263 125.584 468.263C113.987 468.263 104.593 458.87 104.593 447.289C104.593 435.676 113.987 426.265 125.584 426.265Z" fill="#3FC510"/>
<path d="M125.584 319.708C137.197 319.708 146.608 329.101 146.608 340.698C146.608 352.312 137.197 361.705 125.584 361.705C113.987 361.705 104.593 352.311 104.593 340.698C104.593 329.101 113.987 319.708 125.584 319.708Z" fill="#3FC510"/>
<path d="M177.88 586.128C189.494 586.128 198.888 595.521 198.888 607.152C198.888 618.731 189.494 628.125 177.88 628.125C166.284 628.125 156.889 618.732 156.889 607.152C156.89 595.521 166.284 586.128 177.88 586.128Z" fill="#3FC510"/>
<path d="M177.88 479.569C189.494 479.569 198.888 488.962 198.888 500.542C198.888 512.174 189.494 521.566 177.88 521.566C166.284 521.566 156.889 512.173 156.889 500.542C156.89 488.963 166.284 479.569 177.88 479.569Z" fill="#3FC510"/>
<path d="M177.88 372.978C189.494 372.978 198.888 382.371 198.888 393.985C198.888 405.582 189.494 415.009 177.88 415.009C166.284 415.009 156.889 405.582 156.889 393.985C156.89 382.371 166.284 372.978 177.88 372.978Z" fill="#3FC510"/>
<path d="M177.88 213.115C189.494 213.115 198.888 222.542 198.888 234.14C198.888 245.719 189.494 255.147 177.88 255.147C166.284 255.147 156.889 245.719 156.889 234.14C156.89 222.542 166.284 213.115 177.88 213.115Z" fill="#3FC510"/>
<path d="M230.177 319.708C241.774 319.708 251.201 329.101 251.201 340.698C251.201 352.312 241.773 361.705 230.177 361.705C218.581 361.705 209.153 352.311 209.153 340.698C209.153 329.101 218.581 319.708 230.177 319.708Z" fill="#3FC510"/>
<path d="M230.177 159.862C241.774 159.862 251.201 169.255 251.201 180.835C251.201 192.449 241.773 201.86 230.177 201.86C218.581 201.86 209.153 192.448 209.153 180.835C209.153 169.255 218.581 159.862 230.177 159.862Z" fill="#3FC510"/>
<path d="M282.474 532.822C294.071 532.822 303.465 542.266 303.465 553.846C303.465 565.427 294.072 574.87 282.474 574.87C270.878 574.87 261.466 565.427 261.466 553.846C261.466 542.267 270.877 532.822 282.474 532.822Z" fill="#3FC510"/>
<path d="M282.474 479.569C294.071 479.569 303.465 488.962 303.465 500.542C303.465 512.174 294.072 521.566 282.474 521.566C270.878 521.566 261.466 512.173 261.466 500.542C261.466 488.963 270.877 479.569 282.474 479.569Z" fill="#3FC510"/>
<path d="M282.474 372.978C294.071 372.978 303.465 382.371 303.465 393.985C303.465 405.582 294.072 415.009 282.474 415.009C270.878 415.009 261.466 405.582 261.466 393.985C261.466 382.371 270.877 372.978 282.474 372.978Z" fill="#3FC510"/>
<path d="M387.033 426.265C398.648 426.265 408.057 435.676 408.057 447.289C408.057 458.869 398.647 468.263 387.033 468.263C375.436 468.263 366.042 458.87 366.042 447.289C366.042 435.676 375.436 426.265 387.033 426.265Z" fill="#3FC510"/>
<path d="M387.033 319.708C398.648 319.708 408.057 329.101 408.057 340.698C408.057 352.312 398.647 361.705 387.033 361.705C375.436 361.705 366.042 352.311 366.042 340.698C366.042 329.101 375.436 319.708 387.033 319.708Z" fill="#3FC510"/>
<path d="M387.033 213.115C398.648 213.115 408.057 222.542 408.057 234.14C408.057 245.719 398.647 255.147 387.033 255.147C375.436 255.147 366.042 245.719 366.042 234.14C366.042 222.542 375.436 213.115 387.033 213.115Z" fill="#3FC510"/>
<path d="M387.033 53.254C398.648 53.254 408.057 62.698 408.057 74.278C408.057 85.857 398.647 95.302 387.033 95.302C375.436 95.302 366.042 85.857 366.042 74.278C366.042 62.698 375.436 53.254 387.033 53.254Z" fill="#3FC510"/>
<path d="M439.331 532.822C450.944 532.822 460.354 542.266 460.354 553.846C460.354 565.427 450.944 574.87 439.331 574.87C427.733 574.87 418.323 565.427 418.323 553.846C418.323 542.267 427.733 532.822 439.331 532.822Z" fill="#3FC510"/>
<path d="M439.331 159.862C450.944 159.862 460.354 169.255 460.354 180.835C460.354 192.449 450.944 201.86 439.331 201.86C427.733 201.86 418.323 192.448 418.323 180.835C418.323 169.255 427.733 159.862 439.331 159.862Z" fill="#3FC510"/>
<path d="M491.625 479.569C503.223 479.569 512.652 488.962 512.652 500.542C512.652 512.174 503.222 521.566 491.625 521.566C480.029 521.566 470.602 512.173 470.602 500.542C470.602 488.963 480.03 479.569 491.625 479.569Z" fill="#3FC510"/>
<path d="M491.625 372.978C503.223 372.978 512.652 382.371 512.652 393.985C512.652 405.582 503.222 415.009 491.625 415.009C480.029 415.009 470.602 405.582 470.602 393.985C470.602 382.371 480.03 372.978 491.625 372.978Z" fill="#3FC510"/>
<path d="M543.924 213.115C555.52 213.115 564.914 222.542 564.914 234.14C564.914 245.719 555.52 255.147 543.924 255.147C532.309 255.147 522.899 245.719 522.899 234.14C522.899 222.542 532.309 213.115 543.924 213.115Z" fill="#3FC510"/>
<path d="M596.221 372.978C607.801 372.978 617.211 382.371 617.211 393.985C617.211 405.582 607.801 415.009 596.221 415.009C584.59 415.009 575.196 405.582 575.196 393.985C575.196 382.371 584.59 372.978 596.221 372.978Z" fill="#3FC510"/>
<path d="M596.221 319.708C607.801 319.708 617.211 329.101 617.211 340.698C617.211 352.312 607.801 361.705 596.221 361.705C584.59 361.705 575.196 352.311 575.196 340.698C575.196 329.101 584.59 319.708 596.221 319.708Z" fill="#3FC510"/>
<path d="M596.221 106.558C607.801 106.558 617.211 115.951 617.211 127.582C617.211 139.162 607.801 148.589 596.221 148.589C584.59 148.589 575.196 139.161 575.196 127.582C575.196 115.951 584.59 106.558 596.221 106.558Z" fill="#3FC510"/>
<path d="M648.483 319.708C660.096 319.708 669.508 329.101 669.508 340.698C669.508 352.312 660.096 361.705 648.483 361.705C636.885 361.705 627.493 352.311 627.493 340.698C627.493 329.101 636.885 319.708 648.483 319.708Z" fill="#3FC510"/>
<path d="M753.077 372.978C764.657 372.978 774.083 382.371 774.083 393.985C774.083 405.582 764.657 415.009 753.077 415.009C741.479 415.009 732.054 405.582 732.054 393.985C732.053 382.371 741.479 372.978 753.077 372.978Z" fill="#3FC510"/>
<path d="M753.077 266.42C764.657 266.42 774.083 275.847 774.083 287.427C774.083 299.023 764.657 308.451 753.077 308.451C741.479 308.451 732.054 299.023 732.054 287.427C732.053 275.848 741.479 266.42 753.077 266.42Z" fill="#3FC510"/>
</svg>
