<svg width="800" height="800" viewBox="0 0 800 800" fill="none" xmlns="http://www.w3.org/2000/svg">
<g clip-path="url(#clip0)">
<rect width="800" height="800" fill="white"/>
<mask id="mask0" mask-type="alpha" maskUnits="userSpaceOnUse" x="26" y="26" width="193" height="193">
<path fill-rule="evenodd" clip-rule="evenodd" d="M122.5 219C175.795 219 219 175.795 219 122.5C219 69.2045 175.795 26 122.5 26C69.2045 26 26 69.2045 26 122.5C26 175.795 69.2045 219 122.5 219ZM122.5 181.845C155.275 181.845 181.845 155.275 181.845 122.5C181.845 89.7247 155.275 63.1551 122.5 63.1551C89.7247 63.1551 63.1551 89.7247 63.1551 122.5C63.1551 155.275 89.7247 181.845 122.5 181.845Z" fill="#C4C4C4"/>
</mask>
<g mask="url(#mask0)">
<path d="M122.386 122.377L61.5699 197.476C20.1 163.896 13.6878 103.052 47.2742 61.5816C66.154 38.2582 92.3859 25.7419 122.386 25.7419V122.377Z" fill="#DE6D00"/>
<path d="M122.386 122.377L113.966 218.657C94.019 216.913 77.1281 210.09 61.5698 197.476L122.386 122.377Z" fill="#EE8900"/>
<path d="M122.386 122.377L208.497 78.5076C232.721 126.068 213.814 184.262 166.246 208.499C149.432 217.067 132.785 220.297 113.965 218.657L122.386 122.377Z" fill="#FCA600"/>
<path d="M122.386 122.377V25.7419C160.176 25.7419 191.335 44.8587 208.497 78.5075L122.386 122.377Z" fill="#D95100"/>
</g>
<path d="M567.908 218.094H256V219H567.908V218.094Z" fill="#ECECEC"/>
<path d="M568 192.781H256.448V193.687H568V192.781Z" fill="#ECECEC"/>
<path d="M568 161.91H256.448V162.816H568V161.91Z" fill="#ECECEC"/>
<path d="M568 131.046H256.448V131.953H568V131.046Z" fill="#ECECEC"/>
<path d="M568 100.179H256.448V101.085H568V100.179Z" fill="#ECECEC"/>
<path d="M568 69.3113H256.448V70.2176H568V69.3113Z" fill="#ECECEC"/>
<path d="M257.757 36H256.23V218.796H257.757V36Z" fill="#ECECEC"/>
<path d="M309.535 38.322H308.015V218.796H309.535V38.322Z" fill="#ECECEC"/>
<path d="M361.32 38.322H359.799V218.796H361.32V38.322Z" fill="#ECECEC"/>
<path d="M413.111 38.322H411.578V218.796H413.111V38.322Z" fill="#ECECEC"/>
<path d="M464.879 38.322H463.365V218.796H464.879V38.322Z" fill="#ECECEC"/>
<path d="M516.669 38.322H515.142V218.796H516.669V38.322Z" fill="#ECECEC"/>
<path d="M270.646 110.795H257.95V218.176H270.646V110.795Z" fill="#7B52AB"/>
<path d="M289.563 69.3975H276.907V218.176H289.563V69.3975Z" fill="#7B52AB"/>
<path d="M308.513 124.922H295.81V218.175H308.513V124.922Z" fill="#7B52AB"/>
<path d="M327.41 94.1825H314.721V218.175H327.41V94.1825Z" fill="#7B52AB"/>
<path d="M346.282 187.651H333.613V218.175H346.282V187.651Z" fill="#7B52AB"/>
<path d="M365.22 148.742H352.544V218.176H365.22V148.742Z" fill="#7B52AB"/>
<path d="M384.143 161.631H371.448V218.175H384.143V161.631Z" fill="#7B52AB"/>
<path d="M403.054 115.753H390.371V218.175H403.054V115.753Z" fill="#7B52AB"/>
<path d="M421.949 181.638H409.274V218.176H421.949V181.638Z" fill="#7B52AB"/>
<path d="M440.866 188.186H428.203V218.176H440.866V188.186Z" fill="#7B52AB"/>
<path d="M459.796 132.939H447.1V218.176H459.796V132.939Z" fill="#7B52AB"/>
<path d="M478.694 158.927H466.044V218.176H478.694V158.927Z" fill="#7B52AB"/>
<path d="M497.636 81.4148H484.934V218.175H497.636V81.4148Z" fill="#7B52AB"/>
<path d="M516.559 124.379H503.864V218.176H516.559V124.379Z" fill="#7B52AB"/>
<path d="M535.457 165.843H522.794V218.175H535.457V165.843Z" fill="#7B52AB"/>
<path d="M554.387 102.629H541.724V218.175H554.387V102.629Z" fill="#7B52AB"/>
<path d="M770.95 210.164H602V211H770.95V210.164Z" fill="#ECECEC"/>
<path d="M771 186.787H602.242V187.624H771V186.787Z" fill="#ECECEC"/>
<path d="M771 158.277H602.242V159.114H771V158.277Z" fill="#ECECEC"/>
<path d="M771 129.775H602.242V130.612H771V129.775Z" fill="#ECECEC"/>
<path d="M771 101.269H602.242V102.106H771V101.269Z" fill="#ECECEC"/>
<path d="M771 72.7628H602.242V73.5998H771V72.7628Z" fill="#ECECEC"/>
<path d="M602.951 42H602.125V210.812H602.951V42Z" fill="#ECECEC"/>
<path d="M630.998 44.1444H630.175V210.812H630.998V44.1444Z" fill="#ECECEC"/>
<path d="M659.048 44.1444H658.225V210.812H659.048V44.1444Z" fill="#ECECEC"/>
<path d="M687.102 44.1444H686.271V210.812H687.102V44.1444Z" fill="#ECECEC"/>
<path d="M715.143 44.1444H714.323V210.812H715.143V44.1444Z" fill="#ECECEC"/>
<path d="M743.196 44.1444H742.369V210.812H743.196V44.1444Z" fill="#ECECEC"/>
<path d="M606.441 199.59C608.891 199.59 610.876 201.575 610.876 204.021C610.876 206.477 608.891 208.462 606.441 208.462C603.991 208.462 602 206.477 602 204.021C602 201.575 603.991 199.59 606.441 199.59Z" fill="#3FC510"/>
<path d="M617.485 188.33C619.935 188.33 621.923 190.321 621.923 192.771C621.923 195.217 619.935 197.209 617.485 197.209C615.032 197.209 613.047 195.217 613.047 192.771C613.047 190.321 615.032 188.33 617.485 188.33Z" fill="#3FC510"/>
<path d="M617.485 165.82C619.935 165.82 621.923 167.804 621.923 170.261C621.923 172.707 619.935 174.691 617.485 174.691C615.032 174.691 613.047 172.707 613.047 170.261C613.047 167.804 615.032 165.82 617.485 165.82Z" fill="#3FC510"/>
<path d="M628.53 188.33C630.983 188.33 632.971 190.321 632.971 192.771C632.971 195.217 630.983 197.209 628.53 197.209C626.08 197.209 624.095 195.217 624.095 192.771C624.095 190.321 626.08 188.33 628.53 188.33Z" fill="#3FC510"/>
<path d="M628.53 132.048C630.983 132.048 632.971 134.036 632.971 136.49C632.971 138.936 630.983 140.92 628.53 140.92C626.08 140.92 624.095 138.936 624.095 136.49C624.095 134.036 626.08 132.048 628.53 132.048Z" fill="#3FC510"/>
<path d="M628.53 109.538C630.983 109.538 632.971 111.523 632.971 113.972C632.971 116.426 630.983 118.41 628.53 118.41C626.08 118.41 624.095 116.426 624.095 113.972C624.095 111.523 626.08 109.538 628.53 109.538Z" fill="#3FC510"/>
<path d="M639.577 165.82C642.031 165.82 644.015 167.804 644.015 170.261C644.015 172.707 642.031 174.691 639.577 174.691C637.128 174.691 635.143 172.707 635.143 170.261C635.143 167.804 637.128 165.82 639.577 165.82Z" fill="#3FC510"/>
<path d="M639.577 143.309C642.031 143.309 644.015 145.293 644.015 147.739C644.015 150.197 642.031 152.181 639.577 152.181C637.128 152.181 635.143 150.196 635.143 147.739C635.143 145.293 637.128 143.309 639.577 143.309Z" fill="#3FC510"/>
<path d="M639.577 120.792C642.031 120.792 644.015 122.776 644.015 125.229C644.015 127.679 642.031 129.671 639.577 129.671C637.128 129.671 635.143 127.679 635.143 125.229C635.143 122.776 637.128 120.792 639.577 120.792Z" fill="#3FC510"/>
<path d="M639.577 87.0205C642.031 87.0205 644.015 89.012 644.015 91.462C644.015 93.9081 642.031 95.8998 639.577 95.8998C637.128 95.8998 635.143 93.9081 635.143 91.462C635.143 89.012 637.128 87.0205 639.577 87.0205Z" fill="#3FC510"/>
<path d="M650.625 109.538C653.075 109.538 655.066 111.523 655.066 113.972C655.066 116.426 653.075 118.41 650.625 118.41C648.175 118.41 646.184 116.426 646.184 113.972C646.184 111.523 648.175 109.538 650.625 109.538Z" fill="#3FC510"/>
<path d="M650.625 75.7709C653.075 75.7709 655.066 77.7551 655.066 80.2014C655.066 82.6549 653.075 84.643 650.625 84.643C648.175 84.643 646.184 82.6547 646.184 80.2014C646.184 77.7551 648.175 75.7709 650.625 75.7709Z" fill="#3FC510"/>
<path d="M661.673 154.559C664.123 154.559 666.107 156.554 666.107 159C666.107 161.446 664.123 163.441 661.673 163.441C659.223 163.441 657.235 161.446 657.235 159C657.235 156.554 659.223 154.559 661.673 154.559Z" fill="#3FC510"/>
<path d="M661.673 143.309C664.123 143.309 666.107 145.293 666.107 147.739C666.107 150.197 664.123 152.181 661.673 152.181C659.223 152.181 657.235 150.196 657.235 147.739C657.235 145.293 659.223 143.309 661.673 143.309Z" fill="#3FC510"/>
<path d="M661.673 120.792C664.123 120.792 666.107 122.776 666.107 125.229C666.107 127.679 664.123 129.671 661.673 129.671C659.223 129.671 657.235 127.679 657.235 125.229C657.235 122.776 659.223 120.792 661.673 120.792Z" fill="#3FC510"/>
<path d="M683.761 132.048C686.214 132.048 688.202 134.036 688.202 136.49C688.202 138.936 686.214 140.92 683.761 140.92C681.311 140.92 679.326 138.936 679.326 136.49C679.326 134.036 681.311 132.048 683.761 132.048Z" fill="#3FC510"/>
<path d="M683.761 109.538C686.214 109.538 688.202 111.523 688.202 113.972C688.202 116.426 686.214 118.41 683.761 118.41C681.311 118.41 679.326 116.426 679.326 113.972C679.326 111.523 681.311 109.538 683.761 109.538Z" fill="#3FC510"/>
<path d="M683.761 87.0205C686.214 87.0205 688.202 89.012 688.202 91.462C688.202 93.9081 686.214 95.8998 683.761 95.8998C681.311 95.8998 679.326 93.9081 679.326 91.462C679.326 89.012 681.311 87.0205 683.761 87.0205Z" fill="#3FC510"/>
<path d="M683.761 53.2499C686.214 53.2499 688.202 55.2449 688.202 57.6912C688.202 60.1373 686.214 62.1325 683.761 62.1325C681.311 62.1325 679.326 60.1373 679.326 57.6912C679.326 55.2449 681.311 53.2499 683.761 53.2499Z" fill="#3FC510"/>
<path d="M694.809 154.559C697.262 154.559 699.25 156.554 699.25 159C699.25 161.446 697.262 163.441 694.809 163.441C692.358 163.441 690.371 161.446 690.371 159C690.371 156.554 692.358 154.559 694.809 154.559Z" fill="#3FC510"/>
<path d="M694.809 75.7709C697.262 75.7709 699.25 77.7551 699.25 80.2014C699.25 82.6549 697.262 84.643 694.809 84.643C692.358 84.643 690.371 82.6547 690.371 80.2014C690.371 77.7551 692.358 75.7709 694.809 75.7709Z" fill="#3FC510"/>
<path d="M705.856 143.309C708.306 143.309 710.298 145.293 710.298 147.739C710.298 150.197 708.306 152.181 705.856 152.181C703.406 152.181 701.415 150.196 701.415 147.739C701.415 145.293 703.406 143.309 705.856 143.309Z" fill="#3FC510"/>
<path d="M705.856 120.792C708.306 120.792 710.298 122.776 710.298 125.229C710.298 127.679 708.306 129.671 705.856 129.671C703.406 129.671 701.415 127.679 701.415 125.229C701.415 122.776 703.406 120.792 705.856 120.792Z" fill="#3FC510"/>
<path d="M716.904 87.0205C719.354 87.0205 721.338 89.012 721.338 91.462C721.338 93.9081 719.354 95.8998 716.904 95.8998C714.45 95.8998 712.462 93.9081 712.462 91.462C712.462 89.012 714.45 87.0205 716.904 87.0205Z" fill="#3FC510"/>
<path d="M727.952 120.792C730.398 120.792 732.386 122.776 732.386 125.229C732.386 127.679 730.398 129.671 727.952 129.671C725.495 129.671 723.51 127.679 723.51 125.229C723.51 122.776 725.495 120.792 727.952 120.792Z" fill="#3FC510"/>
<path d="M727.952 109.538C730.398 109.538 732.386 111.523 732.386 113.972C732.386 116.426 730.398 118.41 727.952 118.41C725.495 118.41 723.51 116.426 723.51 113.972C723.51 111.523 725.495 109.538 727.952 109.538Z" fill="#3FC510"/>
<path d="M727.952 64.5104C730.398 64.5104 732.386 66.4946 732.386 68.9517C732.386 71.398 730.398 73.3894 727.952 73.3894C725.495 73.3894 723.51 71.3978 723.51 68.9517C723.51 66.4946 725.495 64.5104 727.952 64.5104Z" fill="#3FC510"/>
<path d="M738.992 109.538C741.445 109.538 743.434 111.523 743.434 113.972C743.434 116.426 741.445 118.41 738.992 118.41C736.542 118.41 734.558 116.426 734.558 113.972C734.558 111.523 736.542 109.538 738.992 109.538Z" fill="#3FC510"/>
<path d="M761.088 120.792C763.534 120.792 765.525 122.776 765.525 125.229C765.525 127.679 763.534 129.671 761.088 129.671C758.638 129.671 756.646 127.679 756.646 125.229C756.646 122.776 758.638 120.792 761.088 120.792Z" fill="#3FC510"/>
<path d="M761.088 98.2812C763.534 98.2812 765.525 100.273 765.525 102.719C765.525 105.169 763.534 107.16 761.088 107.16C758.638 107.16 756.646 105.169 756.646 102.719C756.646 100.273 758.638 98.2812 761.088 98.2812Z" fill="#3FC510"/>
<path d="M799.763 788.317H0V791H799.763V788.317Z" fill="#ECECEC"/>
<path d="M801.148 249H1.14795V253H801.148V249Z" fill="#ECECEC"/>
<path d="M801.148 295H1.14795V299H801.148V295Z" fill="#ECECEC"/>
<path d="M801.148 341H1.14795V345H801.148V341Z" fill="#ECECEC"/>
<path d="M801.148 387H1.14795V391H801.148V387Z" fill="#ECECEC"/>
<path d="M801.148 433H1.14795V437H801.148V433Z" fill="#ECECEC"/>
<path d="M801.148 479H1.14795V483H801.148V479Z" fill="#ECECEC"/>
<path d="M801.148 525H1.14795V529H801.148V525Z" fill="#ECECEC"/>
<path d="M801.148 571H1.14795V575H801.148V571Z" fill="#ECECEC"/>
<path d="M801.148 617H1.14795V621H801.148V617Z" fill="#ECECEC"/>
<path d="M801.148 663H1.14795V667H801.148V663Z" fill="#ECECEC"/>
<path d="M801.148 709H1.14795V713H801.148V709Z" fill="#ECECEC"/>
<path d="M801.148 755H1.14795V759H801.148V755Z" fill="#ECECEC"/>
<path d="M800 249H796V791H800V249Z" fill="#CECECE"/>
<path d="M4 249H0V791H4V249Z" fill="#ECECEC"/>
<path d="M96.4092 249H92.4092V791H96.4092V249Z" fill="#ECECEC"/>
<path d="M199.409 249H195.409V791H199.409V249Z" fill="#ECECEC"/>
<path d="M432.409 249H428.409V791H432.409V249Z" fill="#ECECEC"/>
<path d="M535.409 249H531.409V791H535.409V249Z" fill="#ECECEC"/>
<path d="M717.409 249H713.409V791H717.409V249Z" fill="#ECECEC"/>
<g opacity="0.2">
<rect x="12" y="257" width="50" height="24" fill="black"/>
<rect x="131" y="257" width="58" height="24" fill="black"/>
<rect x="206" y="257" width="130" height="24" fill="black"/>
<rect x="441" y="257" width="25" height="24" fill="black"/>
<rect x="611" y="257" width="95" height="24" fill="black"/>
<rect x="725" y="257" width="50" height="24" fill="black"/>
<rect x="12" y="303" width="37" height="24" fill="black"/>
<rect x="145" y="303" width="44" height="24" fill="black"/>
<rect x="206" y="303" width="101" height="24" fill="black"/>
<rect x="441" y="303" width="33" height="24" fill="black"/>
<rect x="611" y="303" width="95" height="24" fill="black"/>
<rect x="725" y="303" width="45" height="24" fill="black"/>
<rect x="12" y="349" width="50" height="24" fill="black"/>
<rect x="150" y="349" width="39" height="24" fill="black"/>
<rect x="206" y="349" width="83" height="24" fill="black"/>
<rect x="441" y="349" width="33" height="24" fill="black"/>
<rect x="611" y="349" width="95" height="24" fill="black"/>
<rect x="725" y="349" width="57" height="24" fill="black"/>
<rect x="12" y="395" width="43" height="24" fill="black"/>
<rect x="138" y="395" width="51" height="24" fill="black"/>
<rect x="206" y="395" width="172" height="24" fill="black"/>
<rect x="441" y="395" width="57" height="24" fill="black"/>
<rect x="611" y="395" width="95" height="24" fill="black"/>
<rect x="725" y="395" width="27" height="24" fill="black"/>
<rect x="12" y="441" width="50" height="24" fill="black"/>
<rect x="121" y="441" width="68" height="24" fill="black"/>
<rect x="206" y="441" width="113" height="24" fill="black"/>
<rect x="441" y="441" width="42" height="24" fill="black"/>
<rect x="611" y="441" width="95" height="24" fill="black"/>
<rect x="725" y="441" width="50" height="24" fill="black"/>
<rect x="12" y="487" width="58" height="24" fill="black"/>
<rect x="158" y="487" width="31" height="24" fill="black"/>
<rect x="206" y="487" width="92" height="24" fill="black"/>
<rect x="441" y="487" width="50" height="24" fill="black"/>
<rect x="611" y="487" width="95" height="24" fill="black"/>
<rect x="725" y="487" width="27" height="24" fill="black"/>
<rect x="12" y="533" width="29" height="24" fill="black"/>
<rect x="138" y="533" width="51" height="24" fill="black"/>
<rect x="206" y="533" width="182" height="24" fill="black"/>
<rect x="441" y="533" width="33" height="24" fill="black"/>
<rect x="611" y="533" width="95" height="24" fill="black"/>
<rect x="725" y="533" width="50" height="24" fill="black"/>
<rect x="12" y="579" width="37" height="24" fill="black"/>
<rect x="150" y="579" width="39" height="24" fill="black"/>
<rect x="206" y="579" width="157" height="24" fill="black"/>
<rect x="441" y="579" width="67" height="24" fill="black"/>
<rect x="611" y="579" width="95" height="24" fill="black"/>
<rect x="725" y="579" width="27" height="24" fill="black"/>
<rect x="12" y="625" width="43" height="24" fill="black"/>
<rect x="138" y="625" width="51" height="24" fill="black"/>
<rect x="206" y="625" width="186" height="24" fill="black"/>
<rect x="441" y="625" width="25" height="24" fill="black"/>
<rect x="611" y="625" width="95" height="24" fill="black"/>
<rect x="725" y="625" width="38" height="24" fill="black"/>
<rect x="12" y="671" width="58" height="24" fill="black"/>
<rect x="158" y="671" width="31" height="24" fill="black"/>
<rect x="206" y="671" width="137" height="24" fill="black"/>
<rect x="441" y="671" width="42" height="24" fill="black"/>
<rect x="611" y="671" width="95" height="24" fill="black"/>
<rect x="725" y="671" width="50" height="24" fill="black"/>
<rect x="12" y="717" width="50" height="24" fill="black"/>
<rect x="125" y="717" width="64" height="24" fill="black"/>
<rect x="206" y="717" width="164" height="24" fill="black"/>
<rect x="441" y="717" width="33" height="24" fill="black"/>
<rect x="611" y="717" width="95" height="24" fill="black"/>
<rect x="725" y="717" width="32" height="24" fill="black"/>
<rect x="12" y="763" width="29" height="24" fill="black"/>
<rect x="150" y="763" width="39" height="24" fill="black"/>
<rect x="206" y="763" width="191" height="24" fill="black"/>
<rect x="441" y="763" width="50" height="24" fill="black"/>
<rect x="611" y="763" width="95" height="24" fill="black"/>
<rect x="725" y="763" width="22" height="24" fill="black"/>
</g>
</g>
<defs>
<clipPath id="clip0">
<rect width="800" height="800" fill="white"/>
</clipPath>
</defs>
</svg>
