<svg width="25" height="24" viewBox="0 0 25 24" fill="none" xmlns="http://www.w3.org/2000/svg">
<path d="M9.5 22C9.23478 22 8.98043 21.8946 8.79289 21.7071C8.60536 21.5196 8.5 21.2652 8.5 21V18H4.5C3.96957 18 3.46086 17.7893 3.08579 17.4142C2.71071 17.0391 2.5 16.5304 2.5 16V4C2.5 3.46957 2.71071 2.96086 3.08579 2.58579C3.46086 2.21071 3.96957 2 4.5 2H20.5C21.0304 2 21.5391 2.21071 21.9142 2.58579C22.2893 2.96086 22.5 3.46957 22.5 4V16C22.5 16.5304 22.2893 17.0391 21.9142 17.4142C21.5391 17.7893 21.0304 18 20.5 18H14.4L10.7 21.71C10.5 21.9 10.25 22 10 22H9.5ZM13.5 10V6H11.5V10H13.5ZM13.5 14V12H11.5V14H13.5Z" fill="white"/>
</svg>
