<svg width="191" height="44" viewBox="0 0 191 44" fill="none" xmlns="http://www.w3.org/2000/svg">
<path d="M191 6.10352e-05H0V44.0001H191V6.10352e-05Z" fill="black"/>
<path fill-rule="evenodd" clip-rule="evenodd" d="M52.5 3.5H15.5V40.5H52.5V3.5ZM14 2V42H54V2H14Z" fill="white"/>
<path fill-rule="evenodd" clip-rule="evenodd" d="M43.7923 3H16V3.00532H21.321C21.3109 5.08109 21.4833 6.90968 21.6566 8.74639C21.693 9.13249 21.7294 9.51894 21.7642 9.90813C21.7728 10.0054 21.7825 10.102 21.7922 10.198C21.8222 10.4946 21.8516 10.7864 21.8442 11.0794C21.8371 11.2452 21.8128 11.4068 21.7882 11.5699C21.757 11.7771 21.7254 11.9868 21.7284 12.2111C21.7284 12.6524 21.8665 13.0084 22.0017 13.3569C22.0977 13.6042 22.1922 13.8478 22.2349 14.1155C22.332 14.7257 22.3306 15.3555 22.3291 15.9824C22.3282 16.4026 22.3272 16.8215 22.356 17.2323C22.473 19.0349 23.0462 20.5129 23.6022 21.9467C23.6575 22.0893 23.7126 22.2316 23.7672 22.3736C23.9897 22.9548 24.1345 23.5551 24.2827 24.1695C24.3439 24.4234 24.4058 24.6798 24.4739 24.9382C24.7024 25.8167 24.9644 26.6328 25.3018 27.3971C25.849 28.6471 26.7132 29.9198 27.5055 31.0866C27.5963 31.2204 27.6862 31.3528 27.7746 31.4836C27.8902 31.6566 28 31.8315 28.109 32.005C28.4244 32.5073 28.7323 32.9977 29.15 33.3956C29.3647 33.6048 29.6233 33.7963 29.8868 33.9912C30.2075 34.2286 30.5354 34.4713 30.7996 34.7578C31.0833 35.0668 31.3255 35.4506 31.5718 35.8407C31.98 36.4875 32.3991 37.1515 33.0356 37.5201C33.5238 37.8107 34.2907 38.0198 34.999 37.9985C35.4955 37.9735 35.982 37.784 36.4379 37.6064C36.7163 37.4979 36.9833 37.3939 37.2343 37.3345C37.431 37.2875 37.6195 37.2546 37.7967 37.2236C38.3097 37.1341 38.7273 37.0612 38.9707 36.7101C39.1946 36.3793 39.2502 35.5434 39.123 35.1487C38.829 34.2289 37.498 34.2941 36.1762 34.3589C35.6423 34.385 35.1099 34.4111 34.6479 34.3722C34.5383 34.3624 34.4339 34.3541 34.3347 34.3463C33.4195 34.2739 32.9428 34.2363 32.8034 33.3196C32.7531 32.9887 32.7082 32.4837 32.958 32.305C33.1869 32.1377 33.5563 32.1486 33.9722 32.1608C34.201 32.1676 34.4439 32.1747 34.6852 32.1529C35.6471 32.0601 36.5983 31.9027 37.2769 31.5262C37.5503 31.3763 37.893 31.1763 38.0621 30.9839C38.1763 30.85 38.564 30.2811 38.4977 29.967C38.3812 29.443 36.4346 29.1578 35.59 29.3076C35.3024 29.358 35.0993 29.4766 34.9106 29.5868C34.726 29.6945 34.5552 29.7942 34.3326 29.8142C34.0613 29.8368 33.7885 29.7775 33.5039 29.7157C33.0726 29.6219 32.6143 29.5223 32.0936 29.6932C32.0167 29.7204 31.9341 29.766 31.8611 29.8061C31.8322 29.822 31.8047 29.8371 31.7798 29.8499C31.5253 29.9953 31.3619 30.2401 31.2061 30.4735C31.0328 30.7332 30.8689 30.9788 30.5993 31.0577C30.1134 31.2075 29.3717 30.9649 29.15 30.8265C28.6718 30.5192 27.9627 28.7836 28.636 28.1767C28.6917 28.1268 28.7516 28.0988 28.8117 28.0706C28.9037 28.0276 28.996 27.9845 29.0739 27.8626C29.1755 27.7028 29.2468 27.4725 29.3212 27.2323C29.4369 26.8587 29.5601 26.4609 29.8164 26.2669C29.9437 26.1727 30.1369 26.135 30.3484 26.0936C30.5483 26.0546 30.7645 26.0124 30.9565 25.9163C31.2162 25.7855 31.6343 25.3596 31.7364 25.0211C31.8369 24.7169 31.891 24.126 31.7364 23.8544C31.6684 23.7271 31.457 23.6812 31.238 23.6336C30.9445 23.5699 30.6371 23.5032 30.6427 23.2331C30.648 22.9677 31.0395 22.9131 31.4134 22.8608C31.6364 22.8297 31.8532 22.7994 31.9778 22.7258C32.2302 22.5708 32.3109 22.3406 32.3976 22.0937C32.4691 21.8897 32.5447 21.6744 32.7242 21.4808C32.9671 21.2138 33.6601 20.9141 34.095 20.8518C34.3346 20.8205 34.5633 20.8254 34.7702 20.8299C35.1263 20.8376 35.418 20.8439 35.59 20.6616C35.9251 20.2966 35.7035 19.5946 35.4354 19.2561C35.2964 19.086 35.1154 18.9666 34.9447 18.8541C34.7263 18.71 34.5247 18.5771 34.4499 18.3632C34.3368 18.0318 34.3625 17.5652 34.3869 17.1239C34.3968 16.9443 34.4065 16.769 34.4065 16.6086C34.4065 14.9848 34.1186 13.2888 33.4286 12.2111C33.2771 11.9723 33.0242 11.7799 32.7622 11.5821C32.7528 11.5751 32.7422 11.5674 32.7305 11.5589C32.5639 11.4374 32.1933 11.1673 32.2154 10.8467C32.2269 10.6262 32.3785 10.5331 32.5898 10.4033C32.6438 10.3701 32.7017 10.3345 32.7622 10.2937C33.4477 9.84577 34.2496 9.0122 34.2549 7.88201C34.2549 7.78363 34.231 7.67559 34.2084 7.57367C34.1806 7.44865 34.1549 7.33282 34.178 7.25531C34.2111 7.13948 34.6204 6.87018 34.9399 6.65998C35.0399 6.59414 35.1312 6.5341 35.1993 6.48639C35.5407 6.23431 35.8408 6.06943 36.1247 5.91345C36.1834 5.88118 36.2415 5.8493 36.299 5.8171C37.9052 4.90291 39.1496 4.24351 41.1678 3.63354C42.0863 3.36279 43.7923 3 43.7923 3ZM28.9978 24.0358C29.2651 24.01 29.4525 23.635 29.6246 23.2593C29.8074 22.857 30.2019 21.8302 29.5835 21.9709C29.2956 22.0432 28.4563 23.3924 28.5218 23.7286C28.5629 23.9096 28.8036 24.0549 28.9978 24.0358ZM29.2688 11.184C29.2665 10.3604 28.8286 9.9527 28.2505 9.66217C27.5933 9.32904 26.5134 9.08871 25.6566 9.19595C25.1538 9.26067 25.0149 9.46742 24.8335 9.73753C24.7676 9.83562 24.6961 9.94206 24.5995 10.0531C24.528 10.1345 24.431 10.2077 24.3339 10.281C24.1154 10.4458 23.8967 10.6109 23.9689 10.8699C24.0349 11.1143 24.4341 11.186 24.863 11.2629C25.4538 11.369 26.1011 11.4851 26.0115 12.0769C25.9528 12.4566 25.4718 12.5537 24.9765 12.6536C24.6235 12.7249 24.2632 12.7976 24.0435 12.9751C23.9285 13.0702 23.4861 13.868 23.5744 14.1061C23.71 14.4681 24.3139 14.2392 24.5165 14.1388C24.6004 14.1025 24.6998 14.0509 24.8032 13.9972C25.0314 13.8787 25.2792 13.7501 25.4228 13.7532C25.6355 13.7615 25.847 13.9264 26.0781 14.1065C26.336 14.3075 26.6182 14.5275 26.9536 14.57C27.8956 14.6849 29.1332 13.7943 29.2688 13.2413C29.3138 13.0639 29.2887 12.8336 29.2622 12.5917C29.2494 12.4737 29.2362 12.353 29.2307 12.2344C29.2229 12.0191 29.2372 11.8023 29.2505 11.6014C29.2604 11.451 29.2698 11.3094 29.2688 11.184Z" fill="white"/>
<path d="M31.3891 27.5903C32.1324 26.9431 33.2238 26.5187 34.4065 26.4236C34.9663 26.3764 35.3783 26.4692 35.9845 26.6548C36.0026 26.6605 36.0252 26.6673 36.0512 26.6752C36.3068 26.752 36.8961 26.9291 36.8062 27.1644C36.7521 27.3132 36.341 27.3196 35.9727 27.3253C35.7707 27.3285 35.5815 27.3314 35.4712 27.3576C35.2922 27.4024 35.1041 27.4861 34.9617 27.5546C34.8376 27.6175 34.7317 27.7125 34.6268 27.8065C34.4884 27.9306 34.3518 28.053 34.178 28.0976C33.7948 28.1958 33.506 28.0969 33.2069 27.9945C32.9176 27.8954 32.6187 27.793 32.2154 27.8626C32.0659 27.8911 31.8582 28.0215 31.6526 28.1506C31.5179 28.2352 31.3841 28.3192 31.268 28.3737C30.5917 28.6954 31.0677 27.8687 31.3891 27.5903Z" fill="white"/>
<path d="M39.0546 11.3574C39.1264 10.9609 39.1957 10.5779 39.4756 10.4557C39.5373 10.4276 40.4778 10.3462 40.7375 10.4557C40.8136 10.4891 40.9004 10.5923 41.0023 10.7134C41.1768 10.9208 41.3954 11.1806 41.6796 11.2315C41.9576 11.2825 42.2691 11.2254 42.5052 11.1509C42.477 11.163 42.7192 10.9752 42.8578 11.0794C42.9862 11.1752 42.9025 11.3188 42.813 11.4723C42.7219 11.6285 42.6249 11.7951 42.739 11.932C42.9064 12.14 43.28 11.9793 43.5863 11.8475C43.6966 11.8 43.7982 11.7563 43.8783 11.735C44.8562 11.4916 46.6269 11.3844 47.374 11.8962C47.6923 12.116 48 12.7754 48 13.4531C48 14.3636 47.6842 15.2062 47.3493 16.0998C47.0212 16.9753 46.6747 17.8999 46.5888 18.9854C46.5175 19.8563 46.48 20.6935 46.4439 21.5011C46.362 23.3318 46.287 25.0099 45.8394 26.581C45.713 27.0282 45.4685 27.6215 45.0519 27.6337C44.6151 27.639 44.4783 27.1195 44.3637 26.684C44.3314 26.5614 44.3009 26.4455 44.266 26.3498C43.8877 25.2935 43.1589 25.0839 42.1485 24.7933C41.9382 24.7328 41.7157 24.6688 41.4816 24.5929C41.4121 24.5707 41.3424 24.5486 41.2727 24.5265C40.6167 24.3181 39.9621 24.1102 39.516 23.8544C39.4048 23.7928 38.8282 23.4331 38.8092 23.154C38.7926 22.8923 39.0285 22.6924 39.2809 22.4785C39.4576 22.3288 39.6424 22.1722 39.7543 21.9827C39.8721 21.7822 39.938 21.6009 39.9945 21.4454C40.0816 21.2057 40.1464 21.0274 40.3446 20.9347C40.5212 20.8466 40.7277 20.8581 40.9199 20.8687C41.2457 20.8868 41.5306 20.9026 41.5608 20.4281C41.5669 20.2517 41.5037 20.0851 41.4435 19.9566C41.2963 19.6443 40.9111 19.3352 40.4773 18.9872C39.6635 18.3343 38.6785 17.5441 38.7719 16.3371C38.7827 16.1898 38.8329 16.0298 38.8856 15.8618C38.97 15.5927 39.0608 15.3033 39.0065 15.013C38.9537 14.7372 38.7951 14.5298 38.6334 14.3185C38.4028 14.0171 38.1661 13.7077 38.222 13.18C38.2545 12.8797 38.3984 12.7059 38.5556 12.5161C38.6715 12.3762 38.7945 12.2277 38.8854 12.0133C38.9704 11.8225 39.0129 11.5877 39.0546 11.3574Z" fill="white"/>
<path d="M36.887 19.8783C37.1886 19.3687 37.5556 18.885 38.1809 18.8682C39.4048 18.8333 39.4733 20.8449 38.3789 21.4017C37.941 21.6215 36.8794 21.75 36.6105 21.3591C36.3516 20.9917 36.6676 20.2448 36.887 19.8783Z" fill="white"/>
<path d="M39.7841 7.18025C40.3001 6.6915 40.8097 6.20892 41.5608 6.13349C41.9812 6.08862 42.5524 6.2818 43.0124 6.55788C43.3901 6.78909 44.1776 7.37168 44.1136 7.64776C44.0485 7.92654 43.5653 8.03805 43.1041 8.14447C42.9777 8.17363 42.853 8.20241 42.739 8.23415C41.7748 8.50795 40.7749 8.78859 39.714 9.04794C39.6675 9.06046 39.6155 9.07495 39.5596 9.09054C39.0893 9.22172 38.3388 9.43106 38.1809 9.20538C37.8661 8.76295 38.8458 7.98139 39.2375 7.66889C39.2902 7.62684 39.3322 7.59328 39.3591 7.57018C39.5045 7.44504 39.6445 7.31242 39.7841 7.18025Z" fill="white"/>
<path fill-rule="evenodd" clip-rule="evenodd" d="M93.6975 18.9761C95.4487 18.9761 96.6465 19.813 97.1196 20.5307H97.1611V19.2171H100.01V28.3363C100.01 32.0873 98.0905 34.1 94.2121 34.1C92.4371 34.1 90.6205 33.792 89.1756 32.6443L90.8898 30.101C91.836 30.9017 92.8908 31.3908 94.1468 31.3908C96.0286 31.3908 96.9157 30.3685 96.9157 28.9552V27.9894H96.8733C96.1707 28.9552 94.973 29.3003 94.047 29.3003C91.0751 29.3003 89.1094 27.1684 89.1094 24.159C89.1094 21.5132 90.8456 18.9761 93.6975 18.9761ZM163.203 19.1345L165.787 25.7139H165.825L168.035 19.1345H171.213L166.673 30.7149C165.849 32.8265 165.377 34.0174 162.421 34.0174C161.638 34.0174 160.853 33.8929 160.112 33.644L160.522 31.1245C160.997 31.3284 161.454 31.4326 161.968 31.4326C163.37 31.4326 163.599 30.8385 164.033 29.7491L164.256 29.178L159.863 19.1345H163.203ZM112.164 14.3C113.793 14.3 115.854 14.8536 117.097 16.4285L114.619 18.4394C113.978 17.6785 113.051 17.2539 111.852 17.2539C109.418 17.2539 107.625 19.2172 107.625 21.9247C107.625 24.6313 109.418 26.5982 111.752 26.5982C113.051 26.5982 114.103 26.0208 114.762 25.0365L117.444 27.0272C116.226 28.7478 114.163 29.5485 112.164 29.5485C107.605 29.5485 104.282 26.5779 104.282 21.9247C104.282 17.2653 107.605 14.3 112.164 14.3ZM132.676 19.2172V24.0946C132.676 25.2449 132.697 26.7174 134.286 26.7174C135.895 26.7174 136.143 25.47 136.143 24.1767V19.2172H139.242V29.1795H136.268V27.8217H136.226C135.814 28.6074 134.798 29.4275 133.296 29.4275C130.159 29.4275 129.581 27.3768 129.581 24.709V19.2172H132.676ZM123.101 18.9765C126.198 18.9765 128.672 21.0193 128.672 24.1965C128.672 27.3763 126.198 29.427 123.101 29.427C120.004 29.427 117.529 27.3763 117.529 24.1965C117.529 21.0193 120.004 18.9765 123.101 18.9765ZM156.191 16.1454V19.0975H158.915V21.5534H156.191V24.8709C156.191 25.9409 156.313 26.7151 157.65 26.7151C157.983 26.7151 158.644 26.6771 158.915 26.4308V28.9953C158.229 29.2407 157.468 29.2999 156.746 29.2999C154.679 29.2999 153.089 28.4586 153.089 26.2869V21.5534H151.111V19.0975H153.089V16.1454H156.191ZM76.73 19.247V29.2164H73.6389V19.247H76.73ZM84.2849 19.0063C87.4202 19.0063 88.0001 21.0526 88.0001 23.7169V29.2158H84.9037V24.3313C84.9037 23.1872 84.879 21.7041 83.2928 21.7041C81.6811 21.7041 81.4339 22.9577 81.4339 24.2509V29.2158H78.3411V19.2464H81.313V20.6024H81.3527C81.7667 19.8238 82.7756 19.0063 84.2849 19.0063ZM62.2182 14.6962V20.7257L67.892 14.6962H72.1085L65.605 21.4416L72.6601 29.2146H68.163L62.2182 22.32V29.2146H59V14.6962H62.2182ZM146.797 18.9795C149.931 18.9795 150.511 21.0275 150.511 23.6935V29.1854H147.414V24.3062C147.414 23.1603 147.393 21.6852 145.808 21.6852C144.196 21.6852 143.948 22.9326 143.948 24.2259V29.1854H140.853V19.2249H143.824V20.5773H143.867C144.277 19.7969 145.288 18.9795 146.797 18.9795ZM123.101 21.6788C121.551 21.6788 120.623 22.7028 120.623 24.1965C120.623 25.6919 121.551 26.7177 123.101 26.7177C124.648 26.7177 125.577 25.6919 125.577 24.1965C125.577 22.7028 124.648 21.6788 123.101 21.6788ZM94.6861 21.6783C93.2818 21.6783 92.2085 22.8445 92.2085 24.1395C92.2085 25.4293 93.2818 26.5972 94.6861 26.5972C96.0904 26.5972 97.1611 25.4293 97.1611 24.1395C97.1611 22.8445 96.0904 21.6783 94.6861 21.6783ZM75.1845 14.329C76.1748 14.329 76.9798 15.1323 76.9798 16.1131C76.9798 17.0939 76.1748 17.899 75.1845 17.899C74.1924 17.899 73.3891 17.0939 73.3891 16.1131C73.3891 15.1323 74.1924 14.329 75.1845 14.329Z" fill="white"/>
</svg>
