<svg width="191" height="44" viewBox="0 0 191 44" fill="none" xmlns="http://www.w3.org/2000/svg">
<path d="M191 0H0V44H191V0Z" fill="black"/>
<path fill-rule="evenodd" clip-rule="evenodd" d="M42.0013 0H9.72986V0.00622084H15.9084C15.8967 2.43171 16.0969 4.56837 16.2981 6.71452C16.3403 7.16567 16.3827 7.61723 16.4231 8.07198C16.433 8.18565 16.4443 8.29846 16.4556 8.41067C16.4904 8.7573 16.5246 9.09817 16.5159 9.44057C16.5077 9.63433 16.4795 9.82308 16.451 10.0137C16.4147 10.2558 16.378 10.5009 16.3815 10.7629C16.3815 11.2786 16.5418 11.6945 16.6989 12.1018C16.8103 12.3908 16.92 12.6754 16.9696 12.9882C17.0823 13.7012 17.0807 14.4371 17.079 15.1696C17.0779 15.6606 17.0768 16.1501 17.1102 16.6301C17.2461 18.7364 17.9116 20.4634 18.5572 22.1387C18.6215 22.3054 18.6855 22.4716 18.7488 22.6376C19.0072 23.3167 19.1754 24.0181 19.3474 24.736C19.4186 25.0328 19.4903 25.3323 19.5695 25.6343C19.8348 26.6607 20.139 27.6143 20.5307 28.5074C21.1662 29.968 22.1697 31.4551 23.0896 32.8185C23.1951 32.9748 23.2995 33.1295 23.4021 33.2824C23.5363 33.4846 23.6639 33.689 23.7904 33.8917C24.1566 34.4786 24.5142 35.0516 24.9992 35.5166C25.2485 35.761 25.5488 35.9847 25.8547 36.2125C26.2271 36.4899 26.6078 36.7735 26.9147 37.1082C27.2441 37.4693 27.5254 37.9178 27.8112 38.3736C28.2853 39.1294 28.7719 39.9052 29.5111 40.3359C30.0779 40.6754 30.9684 40.9198 31.7909 40.8949C32.3674 40.8657 32.9323 40.6442 33.4617 40.4367C33.785 40.31 34.095 40.1885 34.3864 40.1191C34.6148 40.0641 34.8337 40.0256 35.0395 39.9895C35.6351 39.8848 36.12 39.7997 36.4026 39.3895C36.6626 39.0029 36.7272 38.0262 36.5795 37.565C36.2381 36.4902 34.6926 36.5664 33.1578 36.6421C32.5378 36.6727 31.9196 36.7031 31.3832 36.6576C31.2559 36.6462 31.1347 36.6365 31.0194 36.6274C29.9568 36.5429 29.4033 36.4988 29.2413 35.4277C29.183 35.0411 29.1308 34.451 29.4209 34.2422C29.6867 34.0467 30.1156 34.0594 30.5985 34.0737C30.8642 34.0816 31.1463 34.09 31.4265 34.0644C32.5434 33.956 33.6479 33.7721 34.4359 33.3321C34.7533 33.1571 35.1513 32.9234 35.3476 32.6985C35.4803 32.5421 35.9304 31.8774 35.8534 31.5103C35.7181 30.898 33.4578 30.5648 32.4771 30.7398C32.1432 30.7987 31.9073 30.9373 31.6882 31.066C31.4738 31.1919 31.2755 31.3084 31.0171 31.3317C30.7021 31.3582 30.3852 31.2889 30.0548 31.2166C29.554 31.1071 29.0218 30.9907 28.4172 31.1904C28.3279 31.2222 28.2319 31.2754 28.1473 31.3223C28.1136 31.3409 28.0817 31.3586 28.0528 31.3735C27.7573 31.5434 27.5676 31.8294 27.3867 32.1021C27.1854 32.4056 26.9951 32.6925 26.6821 32.7847C26.1179 32.9598 25.2566 32.6763 24.9992 32.5146C24.4439 32.1555 23.6206 30.1275 24.4023 29.4184C24.467 29.36 24.5366 29.3273 24.6064 29.2944C24.7132 29.2442 24.8204 29.1937 24.9108 29.0513C25.0288 28.8646 25.1116 28.5956 25.198 28.3149C25.3323 27.8783 25.4753 27.4135 25.773 27.1868C25.9208 27.0767 26.1452 27.0326 26.3908 26.9844C26.6229 26.9388 26.8738 26.8894 27.0969 26.7772C27.3984 26.6243 27.8839 26.1266 28.0024 25.7312C28.1191 25.3757 28.1819 24.6852 28.0024 24.3679C27.9234 24.2191 27.6781 24.1655 27.4238 24.1099C27.0828 24.0354 26.7259 23.9574 26.7325 23.6419C26.7386 23.3318 27.1932 23.2679 27.6273 23.2069C27.8863 23.1705 28.138 23.1351 28.2827 23.0491C28.5758 22.868 28.6696 22.599 28.7702 22.3105C28.8533 22.0722 28.941 21.8206 29.1494 21.5943C29.4315 21.2824 30.2362 20.9322 30.7412 20.8594C31.0194 20.8228 31.2849 20.8286 31.5252 20.8338C31.9387 20.8428 32.2774 20.8502 32.4771 20.6372C32.8662 20.2106 32.6089 19.3904 32.2976 18.9949C32.1362 18.7961 31.926 18.6566 31.7278 18.5251C31.4742 18.3568 31.2401 18.2015 31.1533 17.9516C31.0219 17.5644 31.0518 17.0191 31.0801 16.5034C31.0916 16.2936 31.1029 16.0887 31.1029 15.9014C31.1029 14.004 30.7686 12.0222 29.9674 10.7629C29.7914 10.4839 29.4978 10.2591 29.1936 10.028C29.1826 10.0198 29.1703 10.0108 29.1568 10.0009C28.9633 9.85892 28.533 9.54329 28.5586 9.16863C28.572 8.91103 28.748 8.80221 28.9933 8.65055C29.0561 8.61175 29.1233 8.57016 29.1936 8.52255C29.9895 7.99911 30.9207 7.02511 30.9269 5.70451C30.9269 5.58956 30.899 5.46332 30.8728 5.34422C30.8406 5.19813 30.8108 5.0628 30.8376 4.97223C30.8759 4.83688 31.3512 4.52221 31.7222 4.2766C31.8384 4.19967 31.9443 4.12951 32.0234 4.07376C32.4199 3.77921 32.7683 3.58656 33.098 3.40429C33.1662 3.36659 33.2336 3.32933 33.3004 3.29171C35.1654 2.22351 36.6104 1.45301 38.9539 0.74028C40.0204 0.423906 42.0013 0 42.0013 0ZM24.8225 24.5799C25.1329 24.5497 25.3504 24.1115 25.5503 23.6725C25.7625 23.2024 26.2206 22.0027 25.5025 22.1671C25.1682 22.2515 24.1937 23.828 24.2698 24.2208C24.3175 24.4323 24.597 24.6021 24.8225 24.5799ZM25.1371 9.56285C25.1345 8.6004 24.626 8.12406 23.9548 7.78458C23.1916 7.39533 21.9376 7.11451 20.9428 7.23981C20.3589 7.31544 20.1976 7.55702 19.987 7.87264C19.9105 7.98726 19.8274 8.11163 19.7153 8.24137C19.6323 8.33651 19.5196 8.42207 19.4069 8.50766C19.1532 8.70029 18.8992 8.8931 18.9831 9.19582C19.0597 9.4814 19.5232 9.56511 20.0213 9.65505C20.7073 9.77894 21.4589 9.91466 21.3548 10.6062C21.2867 11.0498 20.7282 11.1632 20.1531 11.28C19.7431 11.3633 19.3248 11.4482 19.0698 11.6557C18.9362 11.7668 18.4224 12.699 18.525 12.9772C18.6824 13.4002 19.3837 13.1327 19.6189 13.0154C19.7163 12.973 19.8318 12.9127 19.9519 12.8499C20.2168 12.7115 20.5045 12.5612 20.6713 12.5649C20.9183 12.5745 21.1639 12.7672 21.4322 12.9777C21.7316 13.2126 22.0593 13.4696 22.4488 13.5193C23.5427 13.6535 24.9797 12.6128 25.1371 11.9668C25.1894 11.7595 25.1602 11.4903 25.1295 11.2076C25.1146 11.0698 25.0993 10.9288 25.0929 10.7901C25.0838 10.5386 25.1004 10.2853 25.1158 10.0505C25.1274 9.87475 25.1382 9.70935 25.1371 9.56285Z" fill="white"/>
<path d="M27.5992 28.7332C28.4623 27.9769 29.7295 27.481 31.1029 27.3699C31.7528 27.3148 32.2313 27.4232 32.9352 27.6401C32.9561 27.6467 32.9824 27.6547 33.0127 27.6638C33.3094 27.7536 33.9937 27.9605 33.8894 28.2355C33.8265 28.4094 33.3492 28.4169 32.9214 28.4236C32.6869 28.4273 32.4672 28.4307 32.3391 28.4612C32.1313 28.5137 31.9129 28.6114 31.7475 28.6914C31.6035 28.7649 31.4805 28.8759 31.3587 28.9857C31.1979 29.1308 31.0394 29.2738 30.8376 29.3259C30.3925 29.4407 30.0572 29.3251 29.7099 29.2054C29.374 29.0897 29.0269 28.97 28.5586 29.0513C28.385 29.0846 28.1439 29.237 27.9051 29.3878C27.7487 29.4867 27.5933 29.5849 27.4585 29.6485C26.6733 30.0244 27.226 29.0584 27.5992 28.7332Z" fill="white"/>
<path d="M36.5001 9.7654C36.5834 9.30216 36.6639 8.85463 36.9889 8.71184C37.0605 8.67896 38.1527 8.58387 38.4542 8.71184C38.5426 8.75082 38.6434 8.87141 38.7617 9.01287C38.9643 9.25521 39.2181 9.55883 39.5482 9.61831C39.8709 9.67785 40.2326 9.6112 40.5068 9.52411C40.474 9.53833 40.7553 9.31882 40.9162 9.44057C41.0653 9.55247 40.9681 9.72028 40.8642 9.89972C40.7585 10.0822 40.6458 10.2768 40.7783 10.4368C40.9726 10.6798 41.4065 10.492 41.7621 10.3381C41.8902 10.2826 42.0082 10.2316 42.1012 10.2066C43.2367 9.92224 45.2927 9.79693 46.1603 10.395C46.5299 10.6519 46.8872 11.4223 46.8872 12.2142C46.8872 13.2781 46.5205 14.2626 46.1316 15.3068C45.7506 16.3298 45.3483 17.4102 45.2485 18.6785C45.1657 19.6961 45.1222 20.6745 45.0803 21.6181C44.9852 23.7573 44.8981 25.718 44.3783 27.5539C44.2315 28.0764 43.9477 28.7696 43.4639 28.7839C42.9567 28.7901 42.7979 28.1831 42.6648 27.6741C42.6273 27.531 42.5919 27.3955 42.5513 27.2837C42.1121 26.0494 41.2658 25.8045 40.0926 25.465C39.8484 25.3943 39.5901 25.3195 39.3182 25.2308C39.2376 25.2049 39.1566 25.179 39.0757 25.1532C38.3139 24.9097 37.5538 24.6668 37.0358 24.3679C36.9067 24.2959 36.2372 23.8756 36.2151 23.5494C36.1959 23.2436 36.4698 23.0101 36.7628 22.7602C36.968 22.5852 37.1826 22.4022 37.3126 22.1808C37.4493 21.9466 37.5258 21.7347 37.5915 21.553C37.6926 21.273 37.7678 21.0646 37.9979 20.9562C38.2031 20.8533 38.4428 20.8667 38.666 20.8792C39.0443 20.9003 39.3752 20.9188 39.4102 20.3644C39.4173 20.1582 39.3439 19.9636 39.274 19.8134C39.103 19.4484 38.6558 19.0873 38.152 18.6807C37.2071 17.9178 36.0634 16.9944 36.1718 15.5841C36.1844 15.4119 36.2427 15.225 36.3039 15.0287C36.4019 14.7143 36.5073 14.3761 36.4442 14.0369C36.383 13.7146 36.1987 13.4723 36.011 13.2254C35.7432 12.8732 35.4683 12.5117 35.5333 11.8951C35.571 11.5442 35.7382 11.3411 35.9207 11.1194C36.0552 10.9559 36.1981 10.7823 36.3036 10.5319C36.4023 10.3089 36.4517 10.0345 36.5001 9.7654Z" fill="white"/>
<path d="M33.9831 19.7218C34.3333 19.1264 34.7595 18.5612 35.4856 18.5417C36.9067 18.5008 36.9863 20.8514 35.7155 21.5019C35.207 21.7587 33.9743 21.9089 33.6621 21.4521C33.3614 21.0229 33.7284 20.1502 33.9831 19.7218Z" fill="white"/>
<path d="M37.3471 4.88453C37.9463 4.31343 38.538 3.74955 39.4102 3.66141C39.8983 3.60898 40.5616 3.8347 41.0957 4.1573C41.5344 4.42746 42.4487 5.1082 42.3745 5.43079C42.2988 5.75655 41.7377 5.88684 41.2022 6.01119C41.0555 6.04526 40.9106 6.07889 40.7783 6.11597C39.6587 6.4359 38.4976 6.76383 37.2657 7.06687C37.2117 7.0815 37.1514 7.09843 37.0865 7.11665C36.5404 7.26993 35.6689 7.51454 35.4856 7.25083C35.12 6.73387 36.2576 5.82063 36.7124 5.45549C36.7736 5.40635 36.8225 5.36713 36.8536 5.34015C37.0225 5.19392 37.1851 5.03896 37.3471 4.88453Z" fill="white"/>
<path fill-rule="evenodd" clip-rule="evenodd" d="M97.8881 18.976C99.6393 18.976 100.837 19.8129 101.31 20.5306H101.352V19.217H104.201V28.3363C104.201 32.0872 102.281 34.1 98.4027 34.1C96.6276 34.1 94.8111 33.7919 93.3662 32.6443L95.0803 30.101C96.0265 30.9016 97.0813 31.3907 98.3373 31.3907C100.219 31.3907 101.106 30.3684 101.106 28.9551V27.9893H101.064C100.361 28.9551 99.1635 29.3003 98.2376 29.3003C95.2657 29.3003 93.3 27.1683 93.3 24.1589C93.3 21.5132 95.0362 18.976 97.8881 18.976ZM167.394 19.1344L169.978 25.7138H170.015L172.226 19.1344H175.403L170.864 30.7148C170.039 32.8265 169.567 34.0174 166.612 34.0174C165.828 34.0174 165.043 33.8929 164.303 33.6439L164.712 31.1245C165.187 31.3284 165.645 31.4326 166.158 31.4326C167.561 31.4326 167.789 30.8384 168.224 29.7491L168.447 29.1779L164.053 19.1344H167.394ZM116.355 14.3C117.984 14.3 120.045 14.8535 121.287 16.4284L118.81 18.4394C118.169 17.6784 117.241 17.2538 116.043 17.2538C113.609 17.2538 111.815 19.2171 111.815 21.9246C111.815 24.6313 113.609 26.5981 115.943 26.5981C117.241 26.5981 118.293 26.0208 118.953 25.0365L121.634 27.0272C120.417 28.7477 118.353 29.5484 116.355 29.5484C111.795 29.5484 108.473 26.5778 108.473 21.9246C108.473 17.2653 111.795 14.3 116.355 14.3ZM136.867 19.2171V24.0945C136.867 25.2448 136.887 26.7173 138.477 26.7173C140.086 26.7173 140.334 25.4699 140.334 24.1766V19.2171H143.433V29.1794H140.458V27.8217H140.417C140.005 28.6074 138.989 29.4275 137.486 29.4275C134.349 29.4275 133.771 27.3768 133.771 24.709V19.2171H136.867ZM127.292 18.9765C130.389 18.9765 132.863 21.0193 132.863 24.1964C132.863 27.3762 130.389 29.4269 127.292 29.4269C124.194 29.4269 121.719 27.3762 121.719 24.1964C121.719 21.0193 124.194 18.9765 127.292 18.9765ZM160.381 16.1454V19.0974H163.106V21.5533H160.381V24.8709C160.381 25.9408 160.504 26.715 161.841 26.715C162.174 26.715 162.835 26.6771 163.106 26.4308V28.9953C162.42 29.2407 161.658 29.2998 160.936 29.2998C158.869 29.2998 157.279 28.4585 157.279 26.2869V21.5533H155.301V19.0974H157.279V16.1454H160.381ZM80.9206 19.247V29.2163H77.8295V19.247H80.9206ZM88.4755 19.0062C91.6107 19.0062 92.1906 21.0525 92.1906 23.7168V29.2157H89.0942V24.3312C89.0942 23.1871 89.0695 21.704 87.4834 21.704C85.8716 21.704 85.6245 22.9576 85.6245 24.2509V29.2157H82.5316V19.2463H85.5036V20.6023H85.5433C85.9572 19.8237 86.9661 19.0062 88.4755 19.0062ZM66.4088 14.6962V20.7256L72.0825 14.6962H76.299L69.7955 21.4416L76.8507 29.2145H72.3535L66.4088 22.32V29.2145H63.1906V14.6962H66.4088ZM150.988 18.9794C154.121 18.9794 154.701 21.0275 154.701 23.6935V29.1853H151.605V24.3061C151.605 23.1603 151.584 21.6851 149.998 21.6851C148.387 21.6851 148.139 22.9325 148.139 24.2258V29.1853H145.044V19.2248H148.014V20.5772H148.057C148.468 19.7969 149.478 18.9794 150.988 18.9794ZM127.292 21.6787C125.742 21.6787 124.814 22.7027 124.814 24.1964C124.814 25.6919 125.742 26.7177 127.292 26.7177C128.839 26.7177 129.767 25.6919 129.767 24.1964C129.767 22.7027 128.839 21.6787 127.292 21.6787ZM98.8766 21.6783C97.4723 21.6783 96.399 22.8444 96.399 24.1395C96.399 25.4292 97.4723 26.5972 98.8766 26.5972C100.281 26.5972 101.352 25.4292 101.352 24.1395C101.352 22.8444 100.281 21.6783 98.8766 21.6783ZM79.375 14.3289C80.3654 14.3289 81.1704 15.1323 81.1704 16.1131C81.1704 17.0938 80.3654 17.8989 79.375 17.8989C78.3829 17.8989 77.5797 17.0938 77.5797 16.1131C77.5797 15.1323 78.3829 14.3289 79.375 14.3289Z" fill="white"/>
</svg>
