<svg width="16" height="16" viewBox="0 0 16 16" fill="none" xmlns="http://www.w3.org/2000/svg">
<g clip-path="url(#clip0)">
<path d="M14.78 0.219962C14.7104 0.150267 14.6277 0.0949795 14.5366 0.0572584C14.4456 0.0195373 14.3481 0.00012207 14.2495 0.00012207C14.151 0.00012207 14.0534 0.0195373 13.9624 0.0572584C13.8714 0.0949795 13.7887 0.150267 13.719 0.219962L10.56 3.37896C9.72961 3.12762 8.86664 3.00024 7.99902 3.00096C4.51002 3.00096 1.48502 5.03296 -0.000976562 8.00096C0.636625 9.27482 1.56205 10.3827 2.70202 11.237L0.218023 13.721C0.0813367 13.8623 0.00565037 14.0518 0.00726585 14.2484C0.00888133 14.4451 0.0876694 14.6332 0.22666 14.7723C0.365652 14.9115 0.553725 14.9904 0.750372 14.9922C0.94702 14.994 1.13651 14.9185 1.27802 14.782L14.778 1.28196C14.8477 1.21231 14.903 1.12961 14.9407 1.03859C14.9784 0.94756 14.9979 0.849994 14.9979 0.751462C14.9979 0.65293 14.9784 0.555364 14.9407 0.464338C14.903 0.373313 14.8477 0.290612 14.778 0.220962L14.78 0.219962ZM6.50002 4.99996C6.81368 4.99992 7.11947 5.0982 7.37436 5.28099C7.62926 5.46377 7.82044 5.72187 7.92102 6.01896L6.01902 7.92096C5.68207 7.80705 5.39656 7.57712 5.21345 7.27219C5.03034 6.96727 4.96154 6.6072 5.01933 6.25624C5.07712 5.90528 5.25774 5.58628 5.52896 5.35617C5.80018 5.12606 6.14434 4.99981 6.50002 4.99996V4.99996ZM1.72102 7.99996C2.35641 6.9931 3.21964 6.14974 4.24102 5.53796C4.08103 5.97663 3.99945 6.44003 4.00002 6.90696C4.00002 7.76496 4.27002 8.55896 4.73002 9.20996L3.77802 10.162C2.95665 9.58381 2.2576 8.84908 1.72102 7.99996V7.99996Z" fill="black"/>
<path d="M12 6.90596C12 6.48196 11.934 6.07296 11.811 5.68896L6.78302 10.717C7.38277 10.9085 8.01928 10.9558 8.64075 10.8549C9.26222 10.7541 9.85111 10.508 10.3595 10.1366C10.8679 9.7652 11.2815 9.27904 11.5665 8.71767C11.8516 8.1563 12.0001 7.53557 12 6.90596V6.90596Z" fill="black"/>
<path d="M12.969 4.53101L11.885 5.61501L11.944 5.65201C12.884 6.25201 13.681 7.05501 14.279 8.00001C13.6829 8.94491 12.8856 9.74663 11.944 10.348C11.1035 10.8851 10.1622 11.2448 9.17778 11.4053C8.19335 11.5657 7.18652 11.5234 6.21901 11.281L5.01801 12.482C5.97467 12.8254 6.98356 13.0007 8.00001 13C11.489 13 14.514 10.968 16 8.00001C15.3023 6.6039 14.2589 5.40966 12.969 4.53101V4.53101Z" fill="black"/>
</g>
<defs>
<clipPath id="clip0">
<rect width="16" height="16" fill="white"/>
</clipPath>
</defs>
</svg>
