<svg width="32" height="32" viewBox="0 0 32 32" fill="none" xmlns="http://www.w3.org/2000/svg">
<path d="M25.7812 24.0282C25.6781 24.0001 25.5531 24.0157 25.4094 24.0688C23.4844 24.95 21.6125 25.5782 19.7937 25.9501C15.8656 26.7501 12.0375 26.3313 8.31249 24.6969C7.27812 24.2407 5.84062 23.4719 3.99999 22.3844C3.95257 22.347 3.89471 22.3251 3.83437 22.3219C3.77187 22.3188 3.71874 22.325 3.66874 22.35C3.61874 22.375 3.58124 22.4063 3.55312 22.4469C3.52499 22.4875 3.51875 22.5438 3.54062 22.6157C3.55937 22.6844 3.60624 22.7625 3.68437 22.8469C4.00937 23.2282 4.41249 23.6344 4.89062 24.0657C5.36874 24.4969 6.00312 24.9844 6.79374 25.5282C7.58437 26.0719 8.4125 26.5563 9.27187 26.9782C10.1344 27.4 11.1344 27.7563 12.275 28.0438C13.4156 28.3313 14.5562 28.475 15.6937 28.475C16.825 28.475 17.925 28.3594 18.9906 28.1344C20.0594 27.9063 20.9594 27.6376 21.6937 27.3251C22.425 27.0157 23.1 26.6688 23.7187 26.2938C24.3375 25.9188 24.7937 25.6 25.0906 25.3469C25.3875 25.0907 25.6 24.8907 25.7219 24.7407C25.8656 24.5625 25.9375 24.4094 25.9375 24.275C25.9406 24.1344 25.8844 24.0532 25.7812 24.0282V24.0282ZM16.4812 10.8782C16.0062 10.9188 15.4344 11.0063 14.7625 11.1375C14.0906 11.2657 13.4687 11.4282 12.8937 11.6188C12.3187 11.8094 11.7312 12.075 11.1344 12.4125C10.5344 12.75 10.025 13.1375 9.60312 13.5688C9.18124 14 8.8375 14.5407 8.56875 15.1938C8.3 15.8438 8.16562 16.5594 8.16562 17.3407C8.16562 18.1875 8.31249 18.9407 8.61249 19.6063C8.90937 20.2719 9.30624 20.7938 9.80624 21.1813C10.3031 21.5688 10.8687 21.8719 11.4937 22.0938C12.1187 22.3157 12.7812 22.4157 13.4687 22.3876C14.1562 22.3594 14.8281 22.2532 15.4812 22.0657C16.1312 21.8813 16.7437 21.5844 17.3125 21.1813C17.8812 20.7782 18.3469 20.3 18.7125 19.7532C18.8469 19.9594 18.9656 20.1125 19.0719 20.2125L19.3437 20.4907C19.525 20.675 19.8031 20.9469 20.1781 21.3063C20.55 21.6657 20.9312 22.0157 21.3125 22.3594L24.575 19.2375L24.3875 19.0844C24.2531 18.9813 24.0937 18.8344 23.9125 18.6375C23.7312 18.4438 23.55 18.2282 23.375 17.9969C23.1969 17.7657 23.0437 17.4938 22.9156 17.1875C22.7875 16.8813 22.7219 16.5844 22.7219 16.2969V8.08442C22.7219 7.7688 22.6625 7.42817 22.5437 7.05942C22.4219 6.6938 22.2094 6.2938 21.8969 5.86255C21.5844 5.4313 21.1969 5.0438 20.7344 4.7063C20.2687 4.3688 19.65 4.0813 18.8719 3.85005C18.0969 3.6188 17.2281 3.50317 16.2719 3.50317C15.2937 3.50317 14.3844 3.6188 13.5344 3.8438C12.6875 4.07192 11.9625 4.37505 11.3562 4.7563C10.7531 5.13755 10.2344 5.57817 9.80312 6.0813C9.37187 6.58442 9.04999 7.10942 8.84062 7.6563C8.63124 8.20317 8.52499 8.7563 8.52499 9.31567L12.75 9.68755C12.9219 9.17505 13.1531 8.7313 13.4375 8.35005C13.725 7.9688 13.9969 7.6938 14.2437 7.52192C14.4937 7.35005 14.7625 7.21255 15.0469 7.10942C15.3344 7.0063 15.5281 6.95317 15.6281 6.94067C15.7281 6.9313 15.8062 6.92817 15.8656 6.92817C16.7 6.92817 17.2781 7.17505 17.6031 7.66567C17.8062 7.96255 17.9062 8.41255 17.9062 9.0188V10.7875C17.4312 10.8063 16.9562 10.8375 16.4812 10.8782V10.8782ZM17.9094 15.625C17.9094 16.1438 17.8406 16.6157 17.7062 17.0313C17.4187 17.9407 16.8719 18.5125 16.0687 18.7438C15.3687 18.95 14.7031 18.8469 14.0719 18.4375C13.4 18 13.0656 17.3813 13.0656 16.5844C13.0656 15.9625 13.2219 15.4313 13.5344 14.9875C13.8469 14.5469 14.2625 14.2157 14.7844 13.9969C15.3062 13.7782 15.8156 13.6219 16.3156 13.5313C16.8125 13.4375 17.3469 13.3813 17.9094 13.3625V15.625V15.625ZM28.3844 22.4657C28.25 22.2969 27.8875 22.1875 27.2937 22.1313C26.7 22.075 26.1844 22.0782 25.7406 22.1438C25.2625 22.2 24.7687 22.3375 24.2625 22.5625C23.7531 22.7844 23.5312 22.9719 23.5875 23.1188L23.6094 23.1594L23.6375 23.1813L23.6812 23.1875H23.825C23.85 23.1875 23.8812 23.1844 23.925 23.1813C23.9687 23.1782 24.0094 23.1719 24.0469 23.1688C24.0844 23.1657 24.1375 23.1594 24.2062 23.1563C24.2719 23.1532 24.3344 23.1438 24.3937 23.1344C24.4031 23.1344 24.5094 23.1251 24.7156 23.1063C24.9219 23.0876 25.0719 23.075 25.1625 23.0657C25.2531 23.0563 25.4062 23.0469 25.6156 23.0375C25.825 23.0282 25.9937 23.0282 26.1187 23.0375C26.2437 23.0469 26.3844 23.0594 26.5437 23.0719C26.7031 23.0844 26.8312 23.1125 26.9312 23.1563C27.0312 23.1969 27.1062 23.25 27.1531 23.3157C27.3156 23.5219 27.2844 23.9782 27.0594 24.6875C26.8344 25.3969 26.6219 25.9625 26.4219 26.3813C26.3344 26.5594 26.3344 26.6688 26.4219 26.7157C26.5094 26.7626 26.6312 26.7188 26.7937 26.5907C27.2812 26.2094 27.6875 25.6344 28.0156 24.8625C28.2062 24.4063 28.3437 23.9313 28.425 23.4344C28.5 22.9376 28.4875 22.6157 28.3844 22.4657V22.4657Z" fill="white"/>
</svg>
