<svg width="32" height="32" viewBox="0 0 32 32" fill="none" xmlns="http://www.w3.org/2000/svg">
<path d="M27.5312 13.825H16.2406V18.4656H22.6906C22.4125 19.9656 21.5687 21.2344 20.2969 22.0844C19.2219 22.8031 17.85 23.2281 16.2375 23.2281C13.1156 23.2281 10.475 21.1187 9.53123 18.2844C9.29373 17.5656 9.15623 16.7969 9.15623 16.0063C9.15623 15.2156 9.29373 14.4469 9.53123 13.7281C10.4781 10.8969 13.1187 8.7875 16.2406 8.7875C18 8.7875 19.5781 9.39375 20.8218 10.5813L24.2593 7.14062C22.1812 5.20312 19.4719 4.01562 16.2406 4.01562C11.5562 4.01562 7.5031 6.70312 5.53123 10.6219C4.71873 12.2406 4.25623 14.0719 4.25623 16.0094C4.25623 17.9469 4.71873 19.775 5.53123 21.3937C7.5031 25.3125 11.5562 28 16.2406 28C19.4781 28 22.1906 26.925 24.1719 25.0938C26.4375 23.0062 27.7469 19.9313 27.7469 16.2781C27.7469 15.4281 27.6719 14.6125 27.5312 13.825Z" fill="white"/>
</svg>
