<svg width="135" height="32" viewBox="0 0 135 32" fill="none" xmlns="http://www.w3.org/2000/svg">
<path d="M31.9532 0H0V32H31.9532V0Z" fill="black"/>
<path fill-rule="evenodd" clip-rule="evenodd" d="M24.4338 0H0.432434V0.00460445H5.02762C5.01892 1.79986 5.16785 3.38134 5.31744 4.96985C5.34888 5.30377 5.38036 5.63801 5.4104 5.9746C5.4178 6.05873 5.42622 6.14223 5.4346 6.22528C5.46048 6.48185 5.48592 6.73415 5.47946 6.98758C5.47338 7.13099 5.45237 7.2707 5.43115 7.41177C5.4042 7.59098 5.37692 7.77239 5.37949 7.96635C5.37949 8.34802 5.49875 8.65588 5.61553 8.95731C5.69839 9.17122 5.78001 9.3819 5.81686 9.61343C5.90074 10.1411 5.8995 10.6858 5.89828 11.228C5.89745 11.5914 5.89663 11.9537 5.92144 12.309C6.02253 13.868 6.51751 15.1463 6.99767 16.3863C7.04545 16.5097 7.09308 16.6327 7.14017 16.7556C7.33236 17.2582 7.45739 17.7774 7.58537 18.3087C7.63826 18.5284 7.69166 18.7501 7.75051 18.9736C7.94783 19.7333 8.17408 20.4391 8.46544 21.1002C8.93806 22.1813 9.68436 23.282 10.3686 24.2911C10.447 24.4068 10.5247 24.5213 10.601 24.6345C10.7008 24.7841 10.7957 24.9354 10.8898 25.0854C11.1621 25.5198 11.4281 25.9439 11.7888 26.2881C11.9742 26.469 12.1975 26.6346 12.425 26.8032C12.702 27.0086 12.9852 27.2184 13.2134 27.4662C13.4584 27.7334 13.6676 28.0654 13.8802 28.4028C14.2328 28.9622 14.5947 29.5364 15.1444 29.8552C15.566 30.1065 16.2283 30.2874 16.84 30.269C17.2688 30.2473 17.6889 30.0834 18.0826 29.9298C18.3231 29.8361 18.5537 29.7461 18.7703 29.6947C18.9402 29.654 19.1031 29.6256 19.2561 29.5988C19.6991 29.5214 20.0597 29.4583 20.2699 29.1547C20.4633 28.8686 20.5113 28.1457 20.4015 27.8043C20.1476 27.0088 18.9981 27.0652 17.8566 27.1212C17.3955 27.1438 16.9357 27.1664 16.5368 27.1327C16.4421 27.1242 16.3519 27.1171 16.2663 27.1103C15.476 27.0477 15.0643 27.0152 14.9438 26.2223C14.9004 25.9362 14.8616 25.4994 15.0773 25.3449C15.2751 25.2002 15.594 25.2096 15.9532 25.2202C16.1508 25.226 16.3606 25.2322 16.569 25.2133C17.3997 25.133 18.2212 24.9969 18.8072 24.6713C19.0433 24.5417 19.3393 24.3687 19.4853 24.2023C19.5839 24.0865 19.9187 23.5945 19.8615 23.3228C19.7609 22.8696 18.0798 22.623 17.3504 22.7525C17.102 22.7961 16.9266 22.8987 16.7636 22.9939C16.6042 23.0872 16.4567 23.1734 16.2645 23.1906C16.0302 23.2102 15.7946 23.159 15.5488 23.1055C15.1763 23.0244 14.7806 22.9382 14.3308 23.086C14.2645 23.1096 14.1931 23.1489 14.1301 23.1836C14.1051 23.1974 14.0814 23.2105 14.0599 23.2215C13.8401 23.3473 13.699 23.559 13.5645 23.7609C13.4148 23.9855 13.2732 24.1978 13.0404 24.2661C12.6208 24.3957 11.9802 24.1858 11.7888 24.0661C11.3758 23.8004 10.7635 22.2993 11.3449 21.7744C11.393 21.7313 11.4447 21.707 11.4967 21.6827C11.5761 21.6455 11.6558 21.6082 11.723 21.5028C11.8108 21.3646 11.8724 21.1654 11.9366 20.9577C12.0365 20.6345 12.1429 20.2905 12.3643 20.1228C12.4742 20.0413 12.6411 20.0086 12.8237 19.9729C12.9964 19.9391 13.183 19.9026 13.3489 19.8195C13.5732 19.7064 13.9342 19.338 14.0224 19.0453C14.1092 18.7822 14.1559 18.2711 14.0224 18.0363C13.9637 17.9261 13.7811 17.8864 13.592 17.8453C13.3385 17.7902 13.073 17.7325 13.0779 17.4989C13.0824 17.2694 13.4206 17.2221 13.7434 17.1769C13.936 17.15 14.1232 17.1238 14.2309 17.0601C14.4488 16.9261 14.5186 16.727 14.5934 16.5134C14.6552 16.3371 14.7204 16.1509 14.8754 15.9834C15.0852 15.7525 15.6837 15.4933 16.0593 15.4394C16.2662 15.4123 16.4637 15.4166 16.6424 15.4205C16.9499 15.4271 17.2019 15.4326 17.3504 15.2749C17.6398 14.9592 17.4484 14.3521 17.2169 14.0594C17.0968 13.9122 16.9405 13.809 16.7931 13.7116C16.6044 13.5871 16.4304 13.4721 16.3658 13.2871C16.2681 13.0005 16.2903 12.5969 16.3114 12.2153C16.3199 12.06 16.3283 11.9083 16.3283 11.7696C16.3283 10.3653 16.0797 8.89842 15.4838 7.96635C15.3529 7.75981 15.1346 7.59339 14.9083 7.42237C14.9002 7.41632 14.891 7.40962 14.8809 7.40228C14.737 7.29723 14.417 7.06361 14.4361 6.7863C14.446 6.59564 14.5769 6.51509 14.7594 6.40283C14.806 6.37412 14.8561 6.34333 14.9083 6.30809C15.5002 5.92066 16.1928 5.19974 16.1974 4.22228C16.1974 4.1372 16.1767 4.04376 16.1572 3.9556C16.1332 3.84748 16.1111 3.74731 16.131 3.68027C16.1595 3.58009 16.513 3.34718 16.7889 3.16539C16.8753 3.10844 16.9541 3.05652 17.013 3.01526C17.3078 2.79724 17.567 2.65464 17.8121 2.51974C17.8629 2.49183 17.913 2.46426 17.9627 2.43641C19.3498 1.64576 20.4245 1.07547 22.1674 0.547929C22.9606 0.31376 24.4338 0 24.4338 0ZM11.6573 18.1932C11.8882 18.1708 12.05 17.8465 12.1986 17.5216C12.3565 17.1736 12.6972 16.2856 12.1631 16.4073C11.9145 16.4698 11.1897 17.6367 11.2463 17.9274C11.2818 18.084 11.4896 18.2096 11.6573 18.1932ZM11.8914 7.07809C11.8894 6.36571 11.5112 6.01315 11.012 5.76187C10.4444 5.47377 9.51178 5.26591 8.77186 5.35866C8.33762 5.41463 8.21769 5.59344 8.06101 5.82706C8.00411 5.91189 7.94237 6.00395 7.85897 6.09997C7.79726 6.17039 7.71344 6.23372 7.62959 6.29707C7.44089 6.43965 7.25201 6.58236 7.31439 6.80643C7.37138 7.0178 7.71611 7.07976 8.08652 7.14633C8.59676 7.23803 9.15571 7.33849 9.07835 7.85032C9.02767 8.17866 8.61226 8.26262 8.18457 8.34907C7.87967 8.41069 7.56854 8.47358 7.37885 8.62716C7.27953 8.70938 6.89741 9.39939 6.9737 9.60527C7.09077 9.91838 7.61233 9.72038 7.78728 9.63356C7.85971 9.60216 7.94558 9.55751 8.03492 9.51106C8.23198 9.4086 8.44596 9.29735 8.56995 9.30006C8.75366 9.30721 8.93634 9.44983 9.1359 9.60563C9.35859 9.77948 9.6023 9.96975 9.89193 10.0065C10.7055 10.1058 11.7743 9.33558 11.8914 8.85738C11.9303 8.70394 11.9085 8.50472 11.8857 8.2955C11.8746 8.19349 11.8632 8.0891 11.8585 7.98648C11.8517 7.80029 11.8641 7.61281 11.8755 7.43905C11.8841 7.30894 11.8922 7.18652 11.8914 7.07809Z" fill="white"/>
<path d="M13.7225 21.2673C14.3644 20.7075 15.3069 20.3405 16.3283 20.2583C16.8117 20.2175 17.1675 20.2977 17.6911 20.4582C17.7066 20.4632 17.7262 20.469 17.7487 20.4758C17.9694 20.5422 18.4783 20.6954 18.4007 20.8989C18.354 21.0276 17.9989 21.0332 17.6808 21.0381C17.5064 21.0409 17.343 21.0434 17.2478 21.066C17.0932 21.1048 16.9307 21.1772 16.8078 21.2364C16.7006 21.2908 16.6091 21.3729 16.5186 21.4542C16.399 21.5616 16.2811 21.6675 16.131 21.706C15.8 21.7909 15.5506 21.7054 15.2923 21.6168C15.0425 21.5311 14.7844 21.4426 14.4361 21.5028C14.3069 21.5274 14.1276 21.6402 13.95 21.7519C13.8337 21.825 13.7181 21.8977 13.6179 21.9448C13.0339 22.223 13.4449 21.508 13.7225 21.2673Z" fill="white"/>
<path d="M20.3424 7.228C20.4044 6.88513 20.4643 6.55389 20.706 6.4482C20.7592 6.42386 21.5715 6.35348 21.7958 6.4482C21.8615 6.47705 21.9365 6.5663 22.0244 6.67101C22.1751 6.85038 22.3639 7.07511 22.6094 7.11913C22.8494 7.16321 23.1184 7.11387 23.3223 7.04941C23.298 7.05993 23.5071 6.89746 23.6268 6.98758C23.7377 7.0704 23.6654 7.19461 23.5881 7.32743C23.5095 7.46253 23.4257 7.60653 23.5242 7.72495C23.6688 7.90483 23.9915 7.76584 24.256 7.6519C24.3513 7.61085 24.439 7.57305 24.5082 7.55458C25.3527 7.34409 26.8818 7.25135 27.527 7.69403C27.8019 7.88413 28.0677 8.45442 28.0677 9.0405C28.0677 9.82796 27.795 10.5567 27.5057 11.3296C27.2224 12.0868 26.9231 12.8864 26.8489 13.8252C26.7873 14.5784 26.755 15.3025 26.7238 16.0009C26.6531 17.5843 26.5883 19.0356 26.2017 20.3944C26.0926 20.7812 25.8814 21.2943 25.5217 21.3048C25.1444 21.3094 25.0263 20.8601 24.9273 20.4834C24.8995 20.3774 24.8731 20.2772 24.8429 20.1944C24.5163 19.2809 23.8869 19.0996 23.0143 18.8483C22.8327 18.7959 22.6405 18.7406 22.4384 18.675C22.3784 18.6558 22.3182 18.6366 22.258 18.6175C21.6914 18.4373 21.1261 18.2575 20.7408 18.0363C20.6448 17.983 20.1469 17.6719 20.1305 17.4305C20.1162 17.2041 20.3199 17.0313 20.5378 16.8463C20.6904 16.7168 20.85 16.5814 20.9467 16.4175C21.0484 16.2441 21.1053 16.0873 21.1541 15.9528C21.2293 15.7455 21.2853 15.5913 21.4564 15.5111C21.609 15.4349 21.7873 15.4448 21.9533 15.454C22.2346 15.4697 22.4807 15.4833 22.5068 15.073C22.512 14.9204 22.4574 14.7763 22.4055 14.6652C22.2783 14.395 21.9457 14.1278 21.571 13.8268C20.8682 13.2621 20.0176 12.5787 20.0983 11.5348C20.1076 11.4074 20.151 11.269 20.1965 11.1237C20.2694 10.891 20.3478 10.6407 20.3008 10.3896C20.2553 10.1511 20.1183 9.97174 19.9787 9.78901C19.7795 9.52831 19.5751 9.26068 19.6234 8.80436C19.6514 8.54463 19.7757 8.3943 19.9115 8.23018C20.0115 8.10918 20.1178 7.98069 20.1963 7.79533C20.2697 7.63025 20.3064 7.42717 20.3424 7.228Z" fill="white"/>
<path d="M18.4704 14.5974C18.7309 14.1567 19.0479 13.7384 19.5879 13.7239C20.6448 13.6936 20.704 15.4334 19.7589 15.9149C19.3807 16.105 18.4639 16.2162 18.2317 15.8781C18.0081 15.5604 18.281 14.9145 18.4704 14.5974Z" fill="white"/>
<path d="M20.9724 3.61536C21.418 3.19265 21.8581 2.77528 22.5068 2.71005C22.8698 2.67124 23.3631 2.83831 23.7604 3.07709C24.0866 3.27705 24.7666 3.78091 24.7114 4.01968C24.6551 4.26079 24.2378 4.35723 23.8395 4.44927C23.7304 4.47449 23.6227 4.49938 23.5242 4.52683C22.6916 4.76363 21.828 5.00635 20.9118 5.23065C20.8717 5.24148 20.8268 5.25401 20.7786 5.26749C20.3724 5.38095 19.7243 5.562 19.5879 5.36681C19.316 4.98417 20.162 4.30823 20.5003 4.03796C20.5458 4.00159 20.5822 3.97256 20.6053 3.95259C20.7309 3.84436 20.8518 3.72966 20.9724 3.61536Z" fill="white"/>
<path fill-rule="evenodd" clip-rule="evenodd" d="M67.5314 13.3845C69.0437 13.3845 70.0782 14.1083 70.4867 14.729H70.5226V13.5929H72.9832V21.4798C72.9832 24.7239 71.3252 26.4647 67.9758 26.4647C66.4429 26.4647 64.8741 26.1982 63.6263 25.2057L65.1066 23.006C65.9238 23.6985 66.8347 24.1215 67.9194 24.1215C69.5446 24.1215 70.3106 23.2374 70.3106 22.015V21.1798H70.2741C69.6673 22.015 68.6329 22.3135 67.8333 22.3135C65.2667 22.3135 63.5691 20.4697 63.5691 17.867C63.5691 15.5788 65.0685 13.3845 67.5314 13.3845ZM127.557 13.5215L129.788 19.2118H129.821L131.729 13.5215H134.474L130.553 23.537C129.841 25.3632 129.433 26.3932 126.881 26.3932C126.204 26.3932 125.527 26.2855 124.887 26.0702L125.241 23.8912C125.651 24.0676 126.046 24.1577 126.49 24.1577C127.701 24.1577 127.898 23.6439 128.273 22.7017L128.466 22.2077L124.672 13.5215H127.557ZM83.4795 9.34033C84.8859 9.34033 86.6658 9.81904 87.739 11.1811L85.5994 12.9204C85.0459 12.2622 84.2448 11.895 83.2096 11.895C81.1081 11.895 79.5591 13.593 79.5591 15.9346C79.5591 18.2755 81.1081 19.9766 83.1235 19.9766C84.2448 19.9766 85.1534 19.4772 85.7228 18.6259L88.0386 20.3476C86.9874 21.8357 85.2053 22.5282 83.4795 22.5282C79.5416 22.5282 76.6724 19.959 76.6724 15.9346C76.6724 11.9049 79.5416 9.34033 83.4795 9.34033ZM101.193 13.593V17.8113C101.193 18.8061 101.211 20.0796 102.584 20.0796C103.973 20.0796 104.188 19.0008 104.188 17.8823V13.593H106.864V22.209H104.295V21.0348H104.259C103.903 21.7143 103.026 22.4236 101.729 22.4236C99.0194 22.4236 98.5201 20.65 98.5201 18.3427V13.593H101.193ZM92.9242 13.3849C95.5991 13.3849 97.7357 15.1516 97.7357 17.8994C97.7357 20.6495 95.5991 22.4231 92.9242 22.4231C90.2494 22.4231 88.112 20.6495 88.112 17.8994C88.112 15.1516 90.2494 13.3849 92.9242 13.3849ZM121.5 10.9363V13.4895H123.854V15.6135H121.5V18.4827C121.5 19.4081 121.606 20.0777 122.761 20.0777C123.049 20.0777 123.62 20.0448 123.854 19.8318V22.0498C123.261 22.262 122.603 22.3132 121.98 22.3132C120.195 22.3132 118.822 21.5856 118.822 19.7074V15.6135H117.114V13.4895H118.822V10.9363H121.5ZM52.8783 13.6188V22.2409H50.2088V13.6188H52.8783ZM59.4027 13.4106C62.1103 13.4106 62.6111 15.1804 62.6111 17.4846V22.2404H59.9371V18.016C59.9371 17.0265 59.9157 15.7438 58.5459 15.7438C57.154 15.7438 56.9406 16.828 56.9406 17.9465V22.2404H54.2696V13.6183H56.8361V14.791H56.8704C57.2279 14.1176 58.0992 13.4106 59.4027 13.4106ZM40.3459 9.68299V14.8977L45.2457 9.68299H48.8871L43.2707 15.5168L49.3635 22.2394H45.4798L40.3459 16.2765V22.2394H37.5666V9.68299H40.3459ZM113.388 13.3874C116.094 13.3874 116.595 15.1587 116.595 17.4644V22.2141H113.921V17.9943C113.921 17.0033 113.903 15.7275 112.534 15.7275C111.142 15.7275 110.928 16.8063 110.928 17.9248V22.2141H108.255V13.5996H110.82V14.7693H110.858C111.212 14.0944 112.085 13.3874 113.388 13.3874ZM92.9242 15.7219C91.5857 15.7219 90.7845 16.6076 90.7845 17.8994C90.7845 19.1928 91.5857 20.0799 92.9242 20.0799C94.2605 20.0799 95.0624 19.1928 95.0624 17.8994C95.0624 16.6076 94.2605 15.7219 92.9242 15.7219ZM68.3851 15.7215C67.1724 15.7215 66.2455 16.7301 66.2455 17.8502C66.2455 18.9656 67.1724 19.9757 68.3851 19.9757C69.5979 19.9757 70.5226 18.9656 70.5226 17.8502C70.5226 16.7301 69.5979 15.7215 68.3851 15.7215ZM51.5435 9.36537C52.3988 9.36537 53.094 10.0602 53.094 10.9084C53.094 11.7566 52.3988 12.4529 51.5435 12.4529C50.6867 12.4529 49.9931 11.7566 49.9931 10.9084C49.9931 10.0602 50.6867 9.36537 51.5435 9.36537Z" fill="black"/>
</svg>
