<svg
    width="98"
    height="69"
    viewBox="0 0 98 69"
    fill="none"
    xmlns="http://www.w3.org/2000/svg"
>
    <path
    fill-rule="evenodd"
    clip-rule="evenodd"
    d="M25.508.004h7.363c-.016 3.137.304 5.822.55 8.615.044.499.115.98.097 1.458-.017.47-.147.922-.146 1.409.003.947.506 1.572.632 2.383.2 1.272.064 2.611.146 3.888.16 2.474 1.004 4.463 1.75 6.417.393 1.028.583 2.097.875 3.208.285 1.087.604 2.108 1.021 3.062.76 1.744 1.998 3.507 3.062 5.104.559.837 1.01 1.71 1.701 2.381.592.575 1.449 1.049 2.043 1.701.931 1.026 1.502 2.709 2.769 3.452.604.353 1.549.622 2.428.583.99-.043 1.943-.627 2.77-.826.947-.226 1.74-.191 2.139-.777.283-.414.352-1.455.195-1.945-.515-1.616-3.553-.801-5.542-.973-1.381-.12-2.087-.042-2.281-1.312-.063-.414-.112-1.04.194-1.264.444-.322 1.293-.114 2.137-.194 1.188-.112 2.373-.311 3.207-.777.338-.189.763-.438.973-.681.141-.165.619-.872.534-1.264-.141-.66-2.553-1.015-3.597-.827-.701.127-.996.584-1.554.633-.844.072-1.7-.504-2.769-.146-.134.045-.284.134-.389.194-.666.379-.83 1.318-1.458 1.507-.605.182-1.525-.116-1.799-.292-.59-.379-1.462-2.551-.631-3.305.17-.155.378-.141.535-.389.321-.513.4-1.596.923-1.993.304-.23.922-.189 1.409-.436.321-.164.839-.696.973-1.119.12-.382.19-1.117 0-1.458-.205-.368-1.375-.187-1.362-.778.013-.527 1.242-.385 1.653-.632.578-.346.433-1.014.924-1.555.301-.334 1.156-.702 1.699-.778.803-.113 1.515.123 1.846-.243.415-.456.143-1.329-.195-1.751-.386-.483-1.049-.643-1.213-1.117-.201-.581-.049-1.492-.049-2.188 0-2.025-.364-4.141-1.213-5.493-.186-.295-.501-.531-.826-.777-.18-.136-.706-.495-.681-.924.02-.343.312-.438.681-.68.848-.56 1.841-1.606 1.845-3.014.001-.275-.146-.61-.097-.777.06-.202.914-.72 1.263-.973.513-.373.951-.591 1.361-.826 1.992-1.142 3.531-1.964 6.027-2.722C58.565.448 60.68 0 60.68 0h6.304l5.461.004v46.98H25.508V.004zm29.687 5.698c-.281.245-1.9 1.418-1.459 2.042.218.305 1.356-.057 1.897-.195 1.311-.334 2.55-.678 3.742-1.021.655-.187 1.599-.289 1.701-.728.083-.349-.886-1.077-1.36-1.361-.568-.342-1.277-.588-1.799-.535-1.179.119-1.878 1.062-2.722 1.798zm-.584 5.542c-.271.629-.756.802-.825 1.458-.12 1.122.818 1.443.971 2.285.11.59-.254 1.176-.291 1.652-.182 2.308 2.782 3.397 3.306 4.521.075.162.158.37.145.583-.057.945-.915.339-1.507.632-.395.196-.357.672-.729 1.312-.332.571-1.202.909-1.167 1.459.023.35.74.796.876.875.61.354 1.536.634 2.43.924 1.68.543 2.88.603 3.45 2.187.196.545.277 1.616.973 1.604.512-.009.816-.757.973-1.312.795-2.826.634-5.925.924-9.479.22-2.737 1.75-4.652 1.75-6.903 0-.853-.382-1.67-.779-1.944-.923-.639-3.116-.505-4.326-.194-.376.095-1.123.595-1.41.242-.276-.34.467-.824.146-1.069-.171-.13-.472.107-.438.097-.284.083-.674.161-1.02.097-.559-.101-.909-.857-1.167-.971-.314-.14-1.481-.033-1.556 0-.545.244-.45 1.297-.729 1.944zm-2.478 9.819c-.272.458-.658 1.386-.341 1.847.334.484 1.647.326 2.187.048 1.355-.693 1.275-3.201-.243-3.159-.774.022-1.226.626-1.603 1.264zm-6.803 9.623c-.395.346-.988 1.376-.145.974.363-.175.863-.579 1.166-.633 1.02-.18 1.5.536 2.429.292.383-.101.614-.498.971-.681.176-.089.405-.187.632-.243.384-.093 1.547.042 1.653-.243.12-.324-.779-.555-1.021-.631-.754-.24-1.256-.345-1.944-.292-1.467.114-2.819.652-3.741 1.457z"
    fill="#000"
    />
    <path
    fill-rule="evenodd"
    clip-rule="evenodd"
    d="M38.238 7.72901c1.059-.134 2.395.167 3.208.584.718.367 1.263.869 1.265 1.89599 0 .366-.072.847-.049 1.312.021.452.132.93.049 1.263-.172.685-1.7 1.796-2.869 1.653-.789-.096-1.334-.997-1.895-1.021-.256-.01-.786.338-1.118.487-.256.114-1.004.41-1.167-.049-.105-.296.44-1.291.584-1.409.646-.533 2.307-.31 2.43-1.119.195-1.281-2.33-.784-2.528-1.50699-.127-.466.492-.689.778-1.02.451-.523.463-.962 1.312-1.07M43.1 23.673c.759-.176.273 1.102.048 1.604-.212.475-.442.942-.778.972-.235.021-.536-.157-.583-.388-.085-.42.953-2.104 1.313-2.188M0 51.426h2.798v5.271l4.931-5.271h3.659l-5.649 5.9 6.133 6.796h-3.91l-5.164-6.025v6.025H0V51.426zM14.063 51.102c.861 0 1.56.701 1.56 1.561 0 .861-.699 1.559-1.56 1.559-.861 0-1.56-.698-1.56-1.559 0-.86.699-1.561 1.56-1.561zm-1.345 13.02h2.69v-8.715h-2.69v8.715zM16.806 55.407h2.582v1.183h.036c.358-.681 1.237-1.398 2.546-1.398 2.726 0 3.228 1.793 3.228 4.124v4.806h-2.69v-4.267c0-1.006-.018-2.296-1.398-2.296-1.399 0-1.615 1.094-1.615 2.223v4.34h-2.689v-8.715zM35.636 63.36c0 3.281-1.668 5.039-5.039 5.039-1.542 0-3.121-.269-4.376-1.274l1.489-2.223c.824.699 1.739 1.129 2.833 1.129 1.632 0 2.403-.896 2.403-2.134v-.842h-.036c-.61.842-1.65 1.147-2.457 1.147-2.582 0-4.286-1.864-4.286-4.501 0-2.313 1.507-4.536 3.982-4.536 1.524 0 2.564.735 2.976 1.362h.036V55.38h2.475v7.98zm-4.627-1.524c1.219 0 2.152-1.024 2.152-2.152 0-1.13-.933-2.153-2.152-2.153s-2.152 1.023-2.152 2.153c0 1.128.933 2.152 2.152 2.152zM48.33 54.698c-.556-.664-1.362-1.04-2.401-1.04-2.116 0-3.676 1.722-3.676 4.088 0 2.367 1.56 4.09 3.586 4.09 1.129 0 2.043-.503 2.616-1.364l2.331 1.74c-1.058 1.506-2.85 2.206-4.588 2.206-3.963 0-6.85-2.6-6.85-6.672 0-4.07 2.887-6.671 6.85-6.671 1.415 0 3.207.485 4.283 1.865l-2.151 1.758zM55.7 55.165c2.69 0 4.842 1.793 4.842 4.572 0 2.78-2.152 4.574-4.842 4.574-2.69 0-4.842-1.794-4.842-4.574 0-2.779 2.152-4.572 4.842-4.572m0 6.778c1.345 0 2.152-.897 2.152-2.206s-.807-2.206-2.152-2.206c-1.345 0-2.152.897-2.152 2.206s.807 2.206 2.152 2.206M69.724 64.095h-2.582v-1.184h-.036c-.359.682-1.238 1.4-2.546 1.4-2.726 0-3.229-1.794-3.229-4.125V55.38h2.69v4.268c0 1.003.018 2.295 1.399 2.295 1.399 0 1.614-1.094 1.614-2.224V55.38h2.69v8.715zM71.126 55.385h2.582v1.184h.037c.358-.682 1.237-1.399 2.546-1.399 2.726 0 3.228 1.793 3.228 4.124V64.1h-2.69v-4.268c0-1.004-.018-2.296-1.399-2.296-1.399 0-1.614 1.095-1.614 2.224v4.34h-2.69v-8.715zM86.82 57.423h-2.368v2.904c0 .933.108 1.614 1.274 1.614.287 0 .861-.035 1.094-.25v2.241c-.592.216-1.255.27-1.884.27-1.793 0-3.174-.736-3.174-2.637v-4.142h-1.721v-2.152h1.721v-2.582h2.69v2.582h2.368v2.152zM93.564 65.439c-.718 1.847-1.13 2.887-3.694 2.887-.682 0-1.363-.108-2.009-.323l.359-2.206c.412.18.807.27 1.256.27 1.218 0 1.416-.521 1.793-1.471l.196-.502-3.819-8.787h2.905l2.242 5.756h.036l1.919-5.756h2.761l-3.945 10.132z"
    fill="#000"
    />
</svg>