<svg width="800" height="800" viewBox="0 0 800 800" fill="none" xmlns="http://www.w3.org/2000/svg">
<g clip-path="url(#clip0)">
<rect width="800" height="800" fill="white"/>
<path d="M799.763 796.04H0V800H799.763V796.04Z" fill="#ECECEC"/>
<path d="M801.148 0H1.14795V4H801.148V0Z" fill="#ECECEC"/>
<path d="M801.148 46H1.14795V50H801.148V46Z" fill="#ECECEC"/>
<path d="M801.148 92H1.14795V96H801.148V92Z" fill="#ECECEC"/>
<path d="M801.148 138H1.14795V142H801.148V138Z" fill="#ECECEC"/>
<path d="M801.148 184H1.14795V188H801.148V184Z" fill="#ECECEC"/>
<path d="M801.148 230H1.14795V234H801.148V230Z" fill="#ECECEC"/>
<path d="M801.148 276H1.14795V280H801.148V276Z" fill="#ECECEC"/>
<path d="M801.148 322H1.14795V326H801.148V322Z" fill="#ECECEC"/>
<path d="M801.148 368H1.14795V372H801.148V368Z" fill="#ECECEC"/>
<path d="M801.148 414H1.14795V418H801.148V414Z" fill="#ECECEC"/>
<path d="M801.148 460H1.14795V464H801.148V460Z" fill="#ECECEC"/>
<path d="M801.148 506H1.14795V510H801.148V506Z" fill="#ECECEC"/>
<path d="M801.148 552H1.14795V556H801.148V552Z" fill="#ECECEC"/>
<path d="M801.148 598H1.14795V602H801.148V598Z" fill="#ECECEC"/>
<path d="M801.148 644H1.14795V648H801.148V644Z" fill="#ECECEC"/>
<path d="M801.148 690H1.14795V694H801.148V690Z" fill="#ECECEC"/>
<path d="M801.148 736H1.14795V740H801.148V736Z" fill="#ECECEC"/>
<path d="M801.148 782H1.14795V786H801.148V782Z" fill="#ECECEC"/>
<path d="M800 0H796V800H800V0Z" fill="#CECECE"/>
<path d="M4 0H0V800H4V0Z" fill="#ECECEC"/>
<path d="M96.4092 0H92.4092V800H96.4092V0Z" fill="#ECECEC"/>
<path d="M199.409 0H195.409V800H199.409V0Z" fill="#ECECEC"/>
<path d="M432.409 0H428.409V800H432.409V0Z" fill="#ECECEC"/>
<path d="M535.409 0H531.409V800H535.409V0Z" fill="#ECECEC"/>
<path d="M717.409 0H713.409V800H717.409V0Z" fill="#ECECEC"/>
<g opacity="0.2">
<rect x="12" y="12" width="50" height="24" fill="black"/>
<rect x="131" y="12" width="58" height="24" fill="black"/>
<rect x="206" y="12" width="130" height="24" fill="black"/>
<rect x="441" y="12" width="25" height="24" fill="black"/>
<rect x="611" y="12" width="95" height="24" fill="black"/>
<rect x="725" y="12" width="50" height="24" fill="black"/>
<rect x="12" y="58" width="37" height="24" fill="black"/>
<rect x="145" y="58" width="44" height="24" fill="black"/>
<rect x="206" y="58" width="101" height="24" fill="black"/>
<rect x="441" y="58" width="33" height="24" fill="black"/>
<rect x="611" y="58" width="95" height="24" fill="black"/>
<rect x="725" y="58" width="45" height="24" fill="black"/>
<rect x="12" y="104" width="50" height="24" fill="black"/>
<rect x="150" y="104" width="39" height="24" fill="black"/>
<rect x="206" y="104" width="83" height="24" fill="black"/>
<rect x="441" y="104" width="33" height="24" fill="black"/>
<rect x="611" y="104" width="95" height="24" fill="black"/>
<rect x="725" y="104" width="57" height="24" fill="black"/>
<rect x="12" y="150" width="43" height="24" fill="black"/>
<rect x="138" y="150" width="51" height="24" fill="black"/>
<rect x="206" y="150" width="172" height="24" fill="black"/>
<rect x="441" y="150" width="57" height="24" fill="black"/>
<rect x="611" y="150" width="95" height="24" fill="black"/>
<rect x="725" y="150" width="27" height="24" fill="black"/>
<rect x="12" y="196" width="50" height="24" fill="black"/>
<rect x="121" y="196" width="68" height="24" fill="black"/>
<rect x="206" y="196" width="113" height="24" fill="black"/>
<rect x="441" y="196" width="42" height="24" fill="black"/>
<rect x="611" y="196" width="95" height="24" fill="black"/>
<rect x="725" y="196" width="50" height="24" fill="black"/>
<rect x="12" y="242" width="58" height="24" fill="black"/>
<rect x="158" y="242" width="31" height="24" fill="black"/>
<rect x="206" y="242" width="92" height="24" fill="black"/>
<rect x="441" y="242" width="50" height="24" fill="black"/>
<rect x="611" y="242" width="95" height="24" fill="black"/>
<rect x="725" y="242" width="27" height="24" fill="black"/>
<rect x="12" y="288" width="29" height="24" fill="black"/>
<rect x="138" y="288" width="51" height="24" fill="black"/>
<rect x="206" y="288" width="182" height="24" fill="black"/>
<rect x="441" y="288" width="33" height="24" fill="black"/>
<rect x="611" y="288" width="95" height="24" fill="black"/>
<rect x="725" y="288" width="50" height="24" fill="black"/>
<rect x="12" y="334" width="37" height="24" fill="black"/>
<rect x="150" y="334" width="39" height="24" fill="black"/>
<rect x="206" y="334" width="157" height="24" fill="black"/>
<rect x="441" y="334" width="67" height="24" fill="black"/>
<rect x="611" y="334" width="95" height="24" fill="black"/>
<rect x="725" y="334" width="27" height="24" fill="black"/>
<rect x="12" y="380" width="43" height="24" fill="black"/>
<rect x="138" y="380" width="51" height="24" fill="black"/>
<rect x="206" y="380" width="186" height="24" fill="black"/>
<rect x="441" y="380" width="25" height="24" fill="black"/>
<rect x="611" y="380" width="95" height="24" fill="black"/>
<rect x="725" y="380" width="38" height="24" fill="black"/>
<rect x="12" y="426" width="58" height="24" fill="black"/>
<rect x="158" y="426" width="31" height="24" fill="black"/>
<rect x="206" y="426" width="137" height="24" fill="black"/>
<rect x="441" y="426" width="42" height="24" fill="black"/>
<rect x="611" y="426" width="95" height="24" fill="black"/>
<rect x="725" y="426" width="50" height="24" fill="black"/>
<rect x="12" y="472" width="50" height="24" fill="black"/>
<rect x="125" y="472" width="64" height="24" fill="black"/>
<rect x="206" y="472" width="164" height="24" fill="black"/>
<rect x="441" y="472" width="33" height="24" fill="black"/>
<rect x="611" y="472" width="95" height="24" fill="black"/>
<rect x="725" y="472" width="32" height="24" fill="black"/>
<rect x="12" y="518" width="29" height="24" fill="black"/>
<rect x="150" y="518" width="39" height="24" fill="black"/>
<rect x="206" y="518" width="191" height="24" fill="black"/>
<rect x="441" y="518" width="50" height="24" fill="black"/>
<rect x="611" y="518" width="95" height="24" fill="black"/>
<rect x="725" y="518" width="22" height="24" fill="black"/>
<rect x="12" y="564" width="37" height="24" fill="black"/>
<rect x="145" y="564" width="44" height="24" fill="black"/>
<rect x="206" y="564" width="148" height="24" fill="black"/>
<rect x="441" y="564" width="21" height="24" fill="black"/>
<rect x="611" y="564" width="95" height="24" fill="black"/>
<rect x="725" y="564" width="32" height="24" fill="black"/>
<rect x="12" y="610" width="50" height="24" fill="black"/>
<rect x="158" y="610" width="31" height="24" fill="black"/>
<rect x="206" y="610" width="172" height="24" fill="black"/>
<rect x="441" y="610" width="50" height="24" fill="black"/>
<rect x="611" y="610" width="95" height="24" fill="black"/>
<rect x="725" y="610" width="50" height="24" fill="black"/>
<rect x="12" y="656" width="50" height="24" fill="black"/>
<rect x="138" y="656" width="51" height="24" fill="black"/>
<rect x="206" y="656" width="142" height="24" fill="black"/>
<rect x="441" y="656" width="33" height="24" fill="black"/>
<rect x="611" y="656" width="95" height="24" fill="black"/>
<rect x="725" y="656" width="27" height="24" fill="black"/>
<rect x="12" y="702" width="37" height="24" fill="black"/>
<rect x="121" y="702" width="68" height="24" fill="black"/>
<rect x="206" y="702" width="172" height="24" fill="black"/>
<rect x="441" y="702" width="50" height="24" fill="black"/>
<rect x="611" y="702" width="95" height="24" fill="black"/>
<rect x="725" y="702" width="38" height="24" fill="black"/>
<rect x="12" y="748" width="43" height="24" fill="black"/>
<rect x="150" y="748" width="39" height="24" fill="black"/>
<rect x="206" y="748" width="164" height="24" fill="black"/>
<rect x="441" y="748" width="33" height="24" fill="black"/>
<rect x="611" y="748" width="95" height="24" fill="black"/>
<rect x="725" y="748" width="57" height="24" fill="black"/>
</g>
<path d="M468.811 212.416C479.358 212.416 489.065 214.453 497.934 218.528C524.259 231.779 539.802 256.962 540 285.043V478.473C535.062 509.223 499.865 500.861 499.013 478.473V295.829C495.877 285.413 475.765 289.732 475.284 295.829V715.048C470.17 757.855 414.854 745.29 413.444 714.329V457.62C409.907 441.062 386.629 448.586 386.119 458.339C387.106 543.666 386.838 628.998 386.838 714.329C381.321 756.916 326.275 746.02 324.998 715.048L324.279 295.829C321.055 285.638 302.419 289.547 301.987 295.829V478.473C297.049 509.223 261.852 500.861 261 478.473V285.043C261.498 258.159 271.35 231.227 294.796 218.528C302.467 214.453 311.815 212.416 322.84 212.416L468.811 212.416V212.416ZM468.086 124.573C468.086 161.893 437.833 192.146 400.513 192.146C363.194 192.146 332.94 161.893 332.94 124.573C332.939 87.2537 363.193 57 400.512 57C437.833 57 468.086 87.2537 468.086 124.573V124.573Z" fill="#7B52AB"/>
</g>
<defs>
<clipPath id="clip0">
<rect width="800" height="800" fill="white"/>
</clipPath>
</defs>
</svg>
