<svg width="800" height="800" viewBox="0 0 800 800" fill="none" xmlns="http://www.w3.org/2000/svg">
<g clip-path="url(#clip0)">
<rect width="800" height="800" fill="white"/>
<path d="M799.763 796.04H0V800H799.763V796.04Z" fill="#ECECEC"/>
<path d="M801.148 0H1.14801V4H801.148V0Z" fill="#ECECEC"/>
<path d="M801.148 46H1.14801V50H801.148V46Z" fill="#ECECEC"/>
<path d="M801.148 92H1.14801V96H801.148V92Z" fill="#ECECEC"/>
<path d="M801.148 138H1.14801V142H801.148V138Z" fill="#ECECEC"/>
<path d="M801.148 184H1.14801V188H801.148V184Z" fill="#ECECEC"/>
<path d="M801.148 230H1.14801V234H801.148V230Z" fill="#ECECEC"/>
<path d="M801.148 276H1.14801V280H801.148V276Z" fill="#ECECEC"/>
<path d="M801.148 322H1.14801V326H801.148V322Z" fill="#ECECEC"/>
<path d="M801.148 368H1.14801V372H801.148V368Z" fill="#ECECEC"/>
<path d="M801.148 414H1.14801V418H801.148V414Z" fill="#ECECEC"/>
<path d="M801.148 460H1.14801V464H801.148V460Z" fill="#ECECEC"/>
<path d="M801.148 506H1.14801V510H801.148V506Z" fill="#ECECEC"/>
<path d="M801.148 552H1.14801V556H801.148V552Z" fill="#ECECEC"/>
<path d="M801.148 598H1.14801V602H801.148V598Z" fill="#ECECEC"/>
<path d="M801.148 644H1.14801V648H801.148V644Z" fill="#ECECEC"/>
<path d="M801.148 690H1.14801V694H801.148V690Z" fill="#ECECEC"/>
<path d="M801.148 736H1.14801V740H801.148V736Z" fill="#ECECEC"/>
<path d="M801.148 782H1.14801V786H801.148V782Z" fill="#ECECEC"/>
<path d="M800 0H796V800H800V0Z" fill="#CECECE"/>
<path d="M4 0H0V800H4V0Z" fill="#ECECEC"/>
<path d="M96.4092 0H92.4092V800H96.4092V0Z" fill="#ECECEC"/>
<path d="M199.409 0H195.409V800H199.409V0Z" fill="#ECECEC"/>
<path d="M432.409 0H428.409V800H432.409V0Z" fill="#ECECEC"/>
<path d="M535.409 0H531.409V800H535.409V0Z" fill="#ECECEC"/>
<path d="M717.409 0H713.409V800H717.409V0Z" fill="#ECECEC"/>
<g opacity="0.2">
<rect x="12" y="12" width="50" height="24" fill="black"/>
<rect x="131" y="12" width="58" height="24" fill="black"/>
<rect x="206" y="12" width="130" height="24" fill="black"/>
<rect x="441" y="12" width="25" height="24" fill="black"/>
<rect x="611" y="12" width="95" height="24" fill="black"/>
<rect x="725" y="12" width="50" height="24" fill="black"/>
<rect x="12" y="58" width="37" height="24" fill="black"/>
<rect x="145" y="58" width="44" height="24" fill="black"/>
<rect x="206" y="58" width="101" height="24" fill="black"/>
<rect x="441" y="58" width="33" height="24" fill="black"/>
<rect x="611" y="58" width="95" height="24" fill="black"/>
<rect x="725" y="58" width="45" height="24" fill="black"/>
<rect x="12" y="104" width="50" height="24" fill="black"/>
<rect x="150" y="104" width="39" height="24" fill="black"/>
<rect x="206" y="104" width="83" height="24" fill="black"/>
<rect x="441" y="104" width="33" height="24" fill="black"/>
<rect x="611" y="104" width="95" height="24" fill="black"/>
<rect x="725" y="104" width="57" height="24" fill="black"/>
<rect x="12" y="150" width="43" height="24" fill="black"/>
<rect x="138" y="150" width="51" height="24" fill="black"/>
<rect x="206" y="150" width="172" height="24" fill="black"/>
<rect x="441" y="150" width="57" height="24" fill="black"/>
<rect x="611" y="150" width="95" height="24" fill="black"/>
<rect x="725" y="150" width="27" height="24" fill="black"/>
<rect x="12" y="196" width="50" height="24" fill="black"/>
<rect x="121" y="196" width="68" height="24" fill="black"/>
<rect x="206" y="196" width="113" height="24" fill="black"/>
<rect x="441" y="196" width="42" height="24" fill="black"/>
<rect x="611" y="196" width="95" height="24" fill="black"/>
<rect x="725" y="196" width="50" height="24" fill="black"/>
<rect x="12" y="242" width="58" height="24" fill="black"/>
<rect x="158" y="242" width="31" height="24" fill="black"/>
<rect x="206" y="242" width="92" height="24" fill="black"/>
<rect x="441" y="242" width="50" height="24" fill="black"/>
<rect x="611" y="242" width="95" height="24" fill="black"/>
<rect x="725" y="242" width="27" height="24" fill="black"/>
<rect x="12" y="288" width="29" height="24" fill="black"/>
<rect x="138" y="288" width="51" height="24" fill="black"/>
<rect x="206" y="288" width="182" height="24" fill="black"/>
<rect x="441" y="288" width="33" height="24" fill="black"/>
<rect x="611" y="288" width="95" height="24" fill="black"/>
<rect x="725" y="288" width="50" height="24" fill="black"/>
<rect x="12" y="334" width="37" height="24" fill="black"/>
<rect x="150" y="334" width="39" height="24" fill="black"/>
<rect x="206" y="334" width="157" height="24" fill="black"/>
<rect x="441" y="334" width="67" height="24" fill="black"/>
<rect x="611" y="334" width="95" height="24" fill="black"/>
<rect x="725" y="334" width="27" height="24" fill="black"/>
<rect x="12" y="380" width="43" height="24" fill="black"/>
<rect x="138" y="380" width="51" height="24" fill="black"/>
<rect x="206" y="380" width="186" height="24" fill="black"/>
<rect x="441" y="380" width="25" height="24" fill="black"/>
<rect x="611" y="380" width="95" height="24" fill="black"/>
<rect x="725" y="380" width="38" height="24" fill="black"/>
<rect x="12" y="426" width="58" height="24" fill="black"/>
<rect x="158" y="426" width="31" height="24" fill="black"/>
<rect x="206" y="426" width="137" height="24" fill="black"/>
<rect x="441" y="426" width="42" height="24" fill="black"/>
<rect x="611" y="426" width="95" height="24" fill="black"/>
<rect x="725" y="426" width="50" height="24" fill="black"/>
<rect x="12" y="472" width="50" height="24" fill="black"/>
<rect x="125" y="472" width="64" height="24" fill="black"/>
<rect x="206" y="472" width="164" height="24" fill="black"/>
<rect x="441" y="472" width="33" height="24" fill="black"/>
<rect x="611" y="472" width="95" height="24" fill="black"/>
<rect x="725" y="472" width="32" height="24" fill="black"/>
<rect x="12" y="518" width="29" height="24" fill="black"/>
<rect x="150" y="518" width="39" height="24" fill="black"/>
<rect x="206" y="518" width="191" height="24" fill="black"/>
<rect x="441" y="518" width="50" height="24" fill="black"/>
<rect x="611" y="518" width="95" height="24" fill="black"/>
<rect x="725" y="518" width="22" height="24" fill="black"/>
<rect x="12" y="564" width="37" height="24" fill="black"/>
<rect x="145" y="564" width="44" height="24" fill="black"/>
<rect x="206" y="564" width="148" height="24" fill="black"/>
<rect x="441" y="564" width="21" height="24" fill="black"/>
<rect x="611" y="564" width="95" height="24" fill="black"/>
<rect x="725" y="564" width="32" height="24" fill="black"/>
<rect x="12" y="610" width="50" height="24" fill="black"/>
<rect x="158" y="610" width="31" height="24" fill="black"/>
<rect x="206" y="610" width="172" height="24" fill="black"/>
<rect x="441" y="610" width="50" height="24" fill="black"/>
<rect x="611" y="610" width="95" height="24" fill="black"/>
<rect x="725" y="610" width="50" height="24" fill="black"/>
<rect x="12" y="656" width="50" height="24" fill="black"/>
<rect x="138" y="656" width="51" height="24" fill="black"/>
<rect x="206" y="656" width="142" height="24" fill="black"/>
<rect x="441" y="656" width="33" height="24" fill="black"/>
<rect x="611" y="656" width="95" height="24" fill="black"/>
<rect x="725" y="656" width="27" height="24" fill="black"/>
<rect x="12" y="702" width="37" height="24" fill="black"/>
<rect x="121" y="702" width="68" height="24" fill="black"/>
<rect x="206" y="702" width="172" height="24" fill="black"/>
<rect x="441" y="702" width="50" height="24" fill="black"/>
<rect x="611" y="702" width="95" height="24" fill="black"/>
<rect x="725" y="702" width="38" height="24" fill="black"/>
<rect x="12" y="748" width="43" height="24" fill="black"/>
<rect x="150" y="748" width="39" height="24" fill="black"/>
<rect x="206" y="748" width="164" height="24" fill="black"/>
<rect x="441" y="748" width="33" height="24" fill="black"/>
<rect x="611" y="748" width="95" height="24" fill="black"/>
<rect x="725" y="748" width="57" height="24" fill="black"/>
</g>
<path d="M234 310.081C234 272.837 245.881 240.197 268.361 215.782C288.796 193.591 317.549 178.745 352.813 171.969V116H447.863V172.124C522.144 186.763 566.532 236.887 566.532 310.081H471.482C471.482 278.01 440.051 271.234 407.592 271.182H400.052C369.874 271.182 345.779 277.803 335.513 288.976C332.519 292.286 327.851 300.33 329.05 310.081C330.475 321.677 343.355 325.858 417.447 351.256C489.542 376.033 566.532 409.294 566.532 491.23C566.532 561.734 520.433 613.047 447.863 628.462V685H352.813V628.928C332.187 624.841 313.985 617.858 298.349 608.03C269.026 589.563 234 552.061 234 478.091H329.05C329.05 504.265 339.03 512.806 345.921 518.438C352.813 524.071 369.887 539.26 400.1 537.208C401.46 537.115 402.698 537.031 403.823 536.955C419.197 535.304 471.482 525.054 471.482 491.23C471.482 478.297 460.662 474.586 392.16 451.091L388.836 449.951C330.951 430.088 234 396.776 234 310.081Z" fill="#3FC510"/>
</g>
<defs>
<clipPath id="clip0">
<rect width="800" height="800" fill="white"/>
</clipPath>
</defs>
</svg>
